<?xml version="1.0" standalone="no"?>
<!DOCTYPE svg PUBLIC "-//W3C//DTD SVG 1.1//EN" "http://www.w3.org/Graphics/SVG/1.1/DTD/svg11.dtd" >
<svg>
<metadata>
Created by FontForge 20090914 at Wed Aug 22 21:47:32 2018
 By www-data
Copyright (c) 2003 The Hoefler Type Foundry, Inc., dba Hoefler &#38; Frere-Jones. All Rights Reserved.
</metadata>
<defs>
<font id="GothamPro-Black" horiz-adv-x="1024" >
  <font-face 
    font-family="Gotham Pro Black"
    font-weight="400"
    font-stretch="normal"
    units-per-em="2048"
    panose-1="2 0 9 3 4 0 0 2 0 4"
    ascent="1638"
    descent="-410"
    x-height="1108"
    cap-height="1434"
    bbox="-86 -354 2296 1909"
    underline-thickness="40"
    underline-position="-231"
    unicode-range="U+0020-U+25FC"
  />
<missing-glyph horiz-adv-x="748" 
d="M68 0v1365h544v-1365h-544zM136 68h408v1229h-408v-1229z" />
    <glyph glyph-name=".notdef" horiz-adv-x="748" 
d="M68 0v1365h544v-1365h-544zM136 68h408v1229h-408v-1229z" />
    <glyph glyph-name="space" unicode=" " horiz-adv-x="567" 
 />
    <glyph glyph-name="exclam" unicode="!" horiz-adv-x="663" 
d="M111 1260v174h442v-174l-119 -793h-205zM129 0v348h406v-348h-406z" />
    <glyph glyph-name="quotedbl" unicode="&#x22;" horiz-adv-x="1099" 
d="M70 698l45 736h417v-11l-260 -725h-202zM594 698l47 736h418v-11l-260 -725h-205z" />
    <glyph glyph-name="numbersign" unicode="#" horiz-adv-x="1445" 
d="M59 276v330h217l39 230h-188v329h246l45 269h297l-47 -269h260l45 269h297l-45 -269h159v-329h-217l-39 -230h189v-330h-244l-49 -276h-297l49 276h-260l-47 -276h-297l47 276h-160zM563 598h275l41 246h-273z" />
    <glyph glyph-name="dollar" unicode="$" horiz-adv-x="1363" 
d="M51 207l185.001 271.999c132.667 -92.667 259.334 -148.667 380.001 -168v246c-86 20 -158.667 42 -218 66s-110.5 53.667 -153.5 89s-74.667 76.833 -95 124.5s-30.5 103.5 -30.5 167.5c0 122.667 42.833 222.5 128.5 299.5s205.834 121.167 360.501 132.5v116h213v-122
c156.667 -16.667 300.667 -70 432 -160l-168 -275c-80 56.667 -171.333 97.667 -274 123v-237c169.333 -39.333 293.166 -93.166 371.499 -161.499s117.5 -164.833 117.5 -289.5c0 -122.667 -43.5 -221.5 -130.5 -296.5s-204.5 -119.5 -352.5 -133.5v-201h-213v205
c-100.667 10 -198.834 32.5 -294.501 67.5s-181.834 80.167 -258.501 135.5zM479.001 1030c0 -27.333 9.66699 -49.667 29 -67s56 -33.333 110 -48v222c-92.667 -7.33301 -139 -43 -139 -107zM809.001 298.998c91.333 10 137 46.333 137 109c0 28 -9.83301 50.5 -29.5 67.5
s-55.5 33.167 -107.5 48.5v-225z" />
    <glyph glyph-name="percent" unicode="%" horiz-adv-x="1841" 
d="M72 1069c0 108 34.168 199.169 102.501 273.502s157.5 111.5 267.5 111.5c109.333 0 198.166 -37.333 266.499 -112s102.5 -166.334 102.5 -275.001c0 -108 -34.667 -199.167 -104 -273.5s-158.333 -111.5 -267 -111.5s-197.167 37.167 -265.5 111.5
s-102.5 166.166 -102.5 275.499zM229.001 0.00195312l1106 1434h277l-1106 -1434h-277zM322.001 1067c0 -46 11.5 -84.167 34.5 -114.5s51.5 -45.5 85.5 -45.5c34.667 0 63.167 15.167 85.5 45.5s33.5 69.166 33.5 116.499c0 45.333 -11.5 83.333 -34.5 114
s-51.833 46 -86.5 46c-35.333 0 -63.833 -15.167 -85.5 -45.5s-32.5 -69.166 -32.5 -116.499zM1030 367.002c0 108 34.334 199.166 103.001 273.499s158 111.5 268 111.5c109.333 0 198 -37 266 -111s102 -166 102 -276c0 -106.667 -34.667 -197.5 -104 -272.5
s-158 -112.5 -266 -112.5c-108.667 0 -197.334 37.333 -266.001 112s-103 166.334 -103 275.001zM1280 365.001c0 -44.667 11.667 -82.499 35 -113.499s52 -46.5 86 -46.5c34.667 0 63.167 15.167 85.5 45.5s33.5 69.166 33.5 116.499c0 46 -11.333 84 -34 114
s-51.667 45 -87 45c-36.667 0 -65.667 -14.667 -87 -44s-32 -68.333 -32 -117z" />
    <glyph glyph-name="ampersand" unicode="&#x26;" horiz-adv-x="1429" 
d="M43 393c0 180.667 97 314.667 291 402c-62.667 89.333 -94 182 -94 278c0 108.667 41 200.667 123 276s191 113 327 113c128 0 231 -35 309 -105s117 -159 117 -267c0 -162 -93.333 -286.333 -280 -373l159 -156c44 64 89 139.667 135 227l263 -131
c-64 -118 -127 -219 -189 -303l193 -190l-269 -193l-147 150c-128 -97.333 -270 -146 -426 -146c-150 0 -272.833 37.333 -368.5 112s-143.5 176.667 -143.5 306zM440 410c0 -42 15.668 -76.167 47.001 -102.5s71.666 -39.5 120.999 -39.5c52 0 108.667 20.667 170 62
l-235 239c-68.667 -41.333 -103 -94.333 -103 -159zM575.001 1059c0 -48 24.666 -102.667 73.999 -164c52 22.667 90.333 48.5 115 77.5s37 63.167 37 102.5c0 34.667 -10.167 62.5 -30.5 83.5s-47.166 31.5 -80.499 31.5c-34 0 -61.667 -11.833 -83 -35.5
s-32 -55.5 -32 -95.5z" />
    <glyph glyph-name="quotesingle" unicode="'" horiz-adv-x="581" 
d="M70 698l45 736h426v-11l-260 -725h-211z" />
    <glyph glyph-name="parenleft" unicode="(" horiz-adv-x="911" 
d="M90 588c0 102.667 13 197.167 39 283.5s65 165 117 236s114 135.333 186 193s157.333 112.167 256 163.5l162 -241c-133.333 -92 -229.833 -187.5 -289.5 -286.5s-89.5 -215.167 -89.5 -348.5s29.833 -249.5 89.5 -348.5s156.167 -194.5 289.5 -286.5l-162 -242
c-98 51.333 -183.167 106 -255.5 164s-134.5 122.5 -186.5 193.5s-91 149.667 -117 236s-39 180.833 -39 283.5z" />
    <glyph glyph-name="parenright" unicode=")" horiz-adv-x="911" 
d="M61 -47c133.333 92 229.833 187.5 289.5 286.5s89.5 215.167 89.5 348.5s-29.833 249.5 -89.5 348.5s-156.167 194.5 -289.5 286.5l162 241c98.667 -51.333 184 -105.833 256 -163.5s134 -122 186 -193s91 -149.667 117 -236s39 -180.833 39 -283.5
s-13 -197.167 -39 -283.5s-65 -165 -117 -236s-114.167 -135.5 -186.5 -193.5s-157.5 -112.667 -255.5 -164z" />
    <glyph glyph-name="asterisk" unicode="*" horiz-adv-x="870" 
d="M57 973l260 92l-260 92l111 191l211 -181l-51 271h215l-51 -271l210 181l111 -191l-260 -92l260 -92l-111 -189l-210 181l51 -271h-215l51 271l-211 -181z" />
    <glyph glyph-name="plus" unicode="+" horiz-adv-x="1310" 
d="M131 549v344h346v352h357v-352h346v-344h-346v-352h-357v352h-346z" />
    <glyph glyph-name="comma" unicode="," horiz-adv-x="581" 
d="M41 -188c66.667 8 117.5 27.667 152.5 59s52.5 73 52.5 125v8h-158v399h406v-325c0 -144.667 -36.333 -249.167 -109 -313.5s-177 -98.5 -313 -102.5z" />
    <glyph glyph-name="hyphen" unicode="-" horiz-adv-x="835" 
d="M82 469v342h672v-342h-672z" />
    <glyph glyph-name="period" unicode="." horiz-adv-x="581" 
d="M88 0v399h406v-399h-406z" />
    <glyph glyph-name="slash" unicode="/" horiz-adv-x="1095" 
d="M-78 -262l907 1896h316l-907 -1896h-316z" />
    <glyph glyph-name="zero" unicode="0" horiz-adv-x="1495" 
d="M84 717c0 101.333 15.834 197.167 47.501 287.5s75.667 169.333 132 237s126.666 121.334 210.999 161.001s176.166 59.5 275.499 59.5s190.833 -19.667 274.5 -59s153.5 -92.666 209.5 -159.999s99.5 -146.166 130.5 -236.499s46.5 -186.833 46.5 -289.5
c0 -101.333 -15.667 -197.333 -47 -288s-75.166 -169.834 -131.499 -237.501s-126.666 -121.334 -210.999 -161.001s-176.5 -59.5 -276.5 -59.5c-132.667 0 -249.834 33.833 -351.501 101.5s-178.667 157.667 -231 270s-78.5 237.166 -78.5 374.499zM483.001 717.001
c0 -115.333 24.6689 -209.667 74.002 -283s113.666 -110 192.999 -110s142.833 36.333 190.5 109s71.5 167.334 71.5 284.001c0 114 -24.833 208 -74.5 282s-113.834 111 -192.501 111s-142 -36.333 -190 -109s-72 -167.334 -72 -284.001z" />
    <glyph glyph-name="one" unicode="1" horiz-adv-x="864" 
d="M16 1325l420 119h289v-1444h-391v1073l-242 -55z" />
    <glyph glyph-name="two" unicode="2" horiz-adv-x="1277" 
d="M68 0v299.001l536 410c67.333 50.667 114.833 95.5 142.5 134.5s41.5 80.167 41.5 123.5c0 44.667 -14.5 80 -43.5 106s-67.5 39 -115.5 39c-46.667 0 -91.334 -14 -134.001 -42s-93 -75.333 -151 -142l-268 223c82 106.667 166.5 184.5 253.5 233.5
s196.833 73.5 329.5 73.5c156.667 0 284 -42.667 382 -128s147 -196.333 147 -333c0 -56 -6.83301 -106.833 -20.5 -152.5s-35.667 -88.334 -66 -128.001s-64.166 -76 -101.499 -109s-85.333 -70.167 -144 -111.5l-246 -172h592v-324h-1134z" />
    <glyph glyph-name="three" unicode="3" horiz-adv-x="1271" 
d="M37 225l250 250c107.333 -109.333 221.333 -164 342 -164c56.667 0 101.5 13.5 134.5 40.5s49.5 63.5 49.5 109.5s-20.167 82 -60.5 108s-97.833 39 -172.5 39h-168l-58 207l330 297h-549v322h1036v-285l-342 -293c54 -12 102.333 -28.167 145 -48.5
s81.5 -46.5 116.5 -78.5s62 -71.667 81 -119s28.5 -101 28.5 -161c0 -144 -51.833 -259.667 -155.5 -347s-236.167 -131 -397.5 -131c-254 0 -457.333 84.667 -610 254z" />
    <glyph glyph-name="four" unicode="4" horiz-adv-x="1411" 
d="M27 559l743 885h401v-869h183v-296h-183v-279h-385v279h-694zM444 573h342v412z" />
    <glyph glyph-name="five" unicode="5" horiz-adv-x="1290" 
d="M39 199l226.997 265.999c124 -104 240 -156 348 -156c65.333 0 116.833 15.333 154.5 46s56.5 72.667 56.5 126c0 50.667 -19.333 91 -58 121s-89.667 45 -153 45c-73.333 0 -149.666 -24 -228.999 -72l-235 132l40 727h959v-328h-645l-12 -217c72.667 34 149 51 229 51
c52.667 0 102.834 -5.66699 150.501 -17s92.334 -29.333 134.001 -54s77.667 -54.667 108 -90s54.333 -78.5 72 -129.5s26.5 -107.167 26.5 -168.5c0 -157.333 -54.333 -281.666 -163 -372.999s-251.334 -137 -428.001 -137c-121.333 0 -228.666 19.5 -321.999 58.5
s-180 95.5 -260 169.5z" />
    <glyph glyph-name="six" unicode="6" horiz-adv-x="1355" 
d="M84 676c0 112.667 13.8311 216.335 41.498 311.002s68.5 177.667 122.5 249s123.833 126.833 209.5 166.5s183.167 59.5 292.5 59.5c97.333 0 183.333 -12.833 258 -38.5s147.667 -65.167 219 -118.5l-187 -281c-48.667 36.667 -94.667 64 -138 82s-92 27 -146 27
c-80.667 0 -143.667 -27.333 -189 -82s-72.666 -129.334 -81.999 -224.001c46 34.667 93.167 61.834 141.5 81.501s104.5 29.5 168.5 29.5c63.333 0 123.333 -10 180 -30s106.834 -48.667 150.501 -86s78.334 -84.833 104.001 -142.5s38.5 -121.834 38.5 -192.501
c0 -104 -25.833 -195.667 -77.5 -275s-120.334 -139.333 -206.001 -180s-181.167 -61 -286.5 -61c-182.667 0 -328.667 54.667 -438 164c-117.333 117.333 -176 297.666 -176 540.999zM478.998 467.001c0 -53.333 18.5 -97.667 55.5 -133s86.167 -53 147.5 -53
s109.833 17.5 145.5 52.5s53.5 80.167 53.5 135.5c0 52.667 -18.5 96.5 -55.5 131.5s-86.167 52.5 -147.5 52.5s-109.833 -17.5 -145.5 -52.5s-53.5 -79.5 -53.5 -133.5z" />
    <glyph glyph-name="seven" unicode="7" horiz-adv-x="1257" 
d="M94 1100v334h1104v-299l-633 -1135h-438l631 1100h-664z" />
    <glyph glyph-name="eight" unicode="8" horiz-adv-x="1290" 
d="M55 399c0 159.333 82.001 274.001 246.001 344.001c-131.333 72 -197 177.333 -197 316c0 115.333 50.333 210.666 151 285.999s230.667 113 390 113c160 0 290.167 -37.833 390.5 -113.5s150.5 -172.167 150.5 -289.5c0 -136 -65.667 -240 -197 -312
c79.333 -37.333 140.166 -83 182.499 -137s63.5 -123.667 63.5 -209c0 -126.667 -55 -228.667 -165 -306s-251.667 -116 -425 -116s-315 39.167 -425 117.5s-165 180.5 -165 306.5zM438.001 434.001c0 -45.333 18.502 -83.667 55.502 -115s87.5 -47 151.5 -47
s114.5 15.833 151.5 47.5s55.5 71.167 55.5 118.5c0 46 -19.333 83.5 -58 112.5s-88.334 43.5 -149.001 43.5s-110.334 -14.667 -149.001 -44s-58 -68 -58 -116zM469.003 1010c0 -45.333 16.333 -83.001 49 -113.001s75 -45 127 -45c52.667 0 95.167 14.833 127.5 44.5
s48.5 68.167 48.5 115.5c0 41.333 -16.167 76.833 -48.5 106.5s-74.833 44.5 -127.5 44.5c-53.333 0 -96 -14.667 -128 -44s-48 -65.666 -48 -108.999z" />
    <glyph glyph-name="nine" unicode="9" horiz-adv-x="1355" 
d="M88 940c0 104 24.834 195.833 74.501 275.5s117.667 140.667 204 183s183.833 63.5 292.5 63.5c100.667 0 185 -13.667 253 -41s130.667 -69.666 188 -126.999c114.667 -112.667 172 -290.667 172 -534c0 -157.333 -25.167 -294.833 -75.5 -412.5
s-125.833 -209.834 -226.5 -276.501s-221.334 -100 -362.001 -100c-187.333 0 -353.666 56.667 -498.999 170l186 275c96 -76.667 198.333 -115 307 -115c80 0 142.667 26.167 188 78.5s72.666 125.833 81.999 220.5c-82.667 -78 -183.667 -117 -303 -117
c-142 0 -257.667 41.167 -347 123.5s-134 193.5 -134 333.5zM473.001 956c0 -55.333 18.667 -100.501 56 -135.501s87 -52.5 149 -52.5c61.333 0 110.166 17.833 146.499 53.5s54.5 81.167 54.5 136.5c0 56.667 -18.833 103.334 -56.5 140.001s-87.167 55 -148.5 55
s-110.166 -18.167 -146.499 -54.5s-54.5 -83.833 -54.5 -142.5z" />
    <glyph glyph-name="colon" unicode=":" horiz-adv-x="602" 
d="M98 0v399h406v-399h-406zM98 709v399h406v-399h-406z" />
    <glyph glyph-name="semicolon" unicode=";" horiz-adv-x="602" 
d="M51 -193c66.667 8 117.5 27.833 152.5 59.5s52.5 73.5 52.5 125.5v8h-158v399h406v-325c0 -144.667 -36.333 -249.167 -109 -313.5s-177 -98.5 -313 -102.5zM98 709v399h406v-399h-406z" />
    <glyph glyph-name="less" unicode="&#x3c;" horiz-adv-x="1310" 
d="M133 539v362l1018 406v-363l-670 -223l670 -223v-365z" />
    <glyph glyph-name="equal" unicode="=" horiz-adv-x="1310" 
d="M152 274v342h1005v-342h-1005zM152 825v342h1005v-342h-1005z" />
    <glyph glyph-name="greater" unicode="&#x3e;" horiz-adv-x="1310" 
d="M160 133v363l669 223l-669 223v365l1018 -406v-362z" />
    <glyph glyph-name="question" unicode="?" horiz-adv-x="1105" 
d="M20 1241c143.333 143.333 320.334 215 531.001 215c152.667 0 276.167 -39 370.5 -117s141.5 -183.667 141.5 -317c0 -62.667 -9.83301 -118.167 -29.5 -166.5s-48.167 -89 -85.5 -122s-79 -60.167 -125 -81.5s-99 -39.333 -159 -54l-25 -131h-248l-51 342l16 18
c115.333 10 197.833 28.5 247.5 55.5s74.5 63.833 74.5 110.5c0 35.333 -13.5 63 -40.5 83s-64.833 30 -113.5 30c-98.667 0 -198.334 -45 -299.001 -135zM307.001 0v348h404v-348h-404z" />
    <glyph glyph-name="at" unicode="@" horiz-adv-x="1976" 
d="M92 563c0 122 23.3311 238.169 69.998 348.502s109.834 205.833 189.501 286.5s175.834 144.834 288.501 192.501s232.334 71.5 359.001 71.5c124 0 241.167 -21.833 351.5 -65.5s204 -101.834 281 -174.501s138 -157.5 183 -254.5s67.5 -197.5 67.5 -301.5
c0 -89.333 -12.167 -169.833 -36.5 -241.5s-57 -129.334 -98 -173.001s-87.333 -77 -139 -100s-105.834 -34.5 -162.501 -34.5c-150.667 0 -256 51.667 -316 155c-87.333 -100.667 -187.666 -151 -300.999 -151c-108 0 -197.333 37.667 -268 113s-106 174.666 -106 297.999
c0 96 20.5 185 61.5 267s96.333 146.833 166 194.5s144.5 71.5 224.5 71.5c119.333 0 211 -50.667 275 -152l24 125l318 -49l-94 -528c-6 -30.667 -9 -60.667 -9 -90c0 -35.333 12 -64.333 36 -87s56.333 -34 97 -34c69.333 0 127 36.5 173 109.5s69 175.167 69 306.5
c0 94 -19.833 184.333 -59.5 271s-94 162.667 -163 228s-153.5 117.5 -253.5 156.5s-207 58.5 -321 58.5c-116.667 0 -226.334 -21.5 -329.001 -64.5s-189.667 -101 -261 -174s-127.666 -159.667 -168.999 -260s-62 -206.5 -62 -318.5c0 -113.333 20.5 -219.833 61.5 -319.5
s97.5 -185.834 169.5 -258.501s159.667 -130 263 -172s214.666 -63 333.999 -63c98 0 186 11.167 264 33.5s157 56.833 237 103.5l41 -65c-168.667 -102.667 -349.334 -154 -542.001 -154c-104 0 -203.167 15 -297.5 45s-178.666 72.5 -252.999 127.5
s-138.833 119.333 -193.5 193s-96.667 155.834 -126 246.501s-44 185 -44 283zM781.998 557.002c0 -50 14 -89.166 42 -117.499s64 -42.5 108 -42.5c54.667 0 101 23 139 69s57 101.667 57 167c0 47.333 -13.833 85 -41.5 113s-63.5 42 -107.5 42
c-55.333 0 -102 -22.333 -140 -67s-57 -99.334 -57 -164.001z" />
    <glyph glyph-name="A" unicode="A" horiz-adv-x="1628" 
d="M12 0l611 1444h383l610 -1444h-426l-105 256h-553l-102 -256h-418zM649 565h322l-160 408z" />
    <glyph glyph-name="B" unicode="B" horiz-adv-x="1464" 
d="M127 0v1434h735c174.667 0 305 -43 391 -129c62 -62 93 -140.667 93 -236c0 -148.667 -74 -255 -222 -319c92.667 -30.667 163.334 -73.834 212.001 -129.501s73 -130.834 73 -225.501c0 -123.333 -47.833 -220 -143.5 -290s-228.834 -105 -399.501 -105h-739z
M514 319.002h307.001c60.667 0 107.667 11.667 141 35s50 57 50 101c0 40 -16.333 71.5 -49 94.5s-81.334 34.5 -146.001 34.5h-303v-265zM514.001 862.002l250.001 0.000976562c125.333 0 188 43 188 129c0 39.333 -15.333 69.666 -46 90.999s-75.334 32 -134.001 32h-258
v-252z" />
    <glyph glyph-name="C" unicode="C" horiz-adv-x="1495" 
d="M78 717c0 103.333 19.166 200.833 57.499 292.5s90.666 170.667 156.999 237s146.5 118.833 240.5 157.5s194.333 58 301 58c255.333 0 456 -101 602 -303l-291 -225c-88.667 110.667 -194 166 -316 166c-99.333 0 -181.166 -36.833 -245.499 -110.5
s-96.5 -164.5 -96.5 -272.5c0 -108.667 32.167 -199.667 96.5 -273s146.166 -110 245.499 -110c70 0 129.5 14.5 178.5 43.5s97.5 72.5 145.5 130.5l299 -213c-48.667 -66.667 -100.167 -122.667 -154.5 -168s-122.666 -82.666 -204.999 -111.999s-174.166 -44 -275.499 -44
c-135.333 0 -259.333 31.833 -372 95.5s-202 152.667 -268 267s-99 242.166 -99 383.499z" />
    <glyph glyph-name="D" unicode="D" horiz-adv-x="1566" 
d="M127 0v1434h553c126 0 240 -17.5 342 -52.5s187 -84 255 -147s120.333 -138.167 157 -225.5s55 -183.333 55 -288c0 -103.333 -18.5 -199 -55.5 -287s-89.833 -164.167 -158.5 -228.5s-154.667 -114.666 -258 -150.999s-218.333 -54.5 -345 -54.5h-545zM524 351.999
l162 0.000976562c120.667 0 216.667 32.167 288 96.5s107 154.5 107 270.5c0 113.333 -35.833 202.666 -107.5 267.999s-167.5 98 -287.5 98h-162v-733z" />
    <glyph glyph-name="E" unicode="E" horiz-adv-x="1366" 
d="M127 0v1434h1153v-338h-760v-217h688v-314h-688v-227h770v-338h-1163z" />
    <glyph glyph-name="F" unicode="F" horiz-adv-x="1327" 
d="M127 0v1434h1147v-349h-750v-243h678v-330h-678v-512h-397z" />
    <glyph glyph-name="G" unicode="G" horiz-adv-x="1574" 
d="M78 717c0 103.333 19.501 200.834 58.501 292.501s92.5 170.667 160.5 237s149.833 118.833 245.5 157.5s198.167 58 307.5 58c121.333 0 228.666 -17.667 321.999 -53s180 -87.333 260 -156l-234 -280c-53.333 45.333 -107.333 79.166 -162 101.499s-116 33.5 -184 33.5
c-103.333 0 -190.333 -38.333 -261 -115s-106 -170.667 -106 -282c0 -115.333 36.5 -210.5 109.5 -285.5s166.167 -112.5 279.5 -112.5c92.667 0 169.334 20 230.001 60v174h-283v291h660v-645c-180 -148 -387.667 -222 -623 -222c-147.333 0 -280.333 31.5 -399 94.5
s-211.834 151.5 -279.501 265.5s-101.5 242.667 -101.5 386z" />
    <glyph glyph-name="H" unicode="H" horiz-adv-x="1558" 
d="M127 0v1434h397v-537h510v537h398v-1434h-398v545h-510v-545h-397z" />
    <glyph glyph-name="I" unicode="I" horiz-adv-x="669" 
d="M135 0v1434h400v-1434h-400z" />
    <glyph glyph-name="J" unicode="J" horiz-adv-x="1155" 
d="M8 217l256 242c37.333 -44.667 73.333 -78 108 -100s73 -33 115 -33c51.333 0 91.5 17 120.5 51s43.5 83.667 43.5 149v908h396v-910c0 -174 -47.333 -308.333 -142 -403c-97.333 -97.333 -228.333 -146 -393 -146c-218 0 -386 80.667 -504 242z" />
    <glyph glyph-name="K" unicode="K" horiz-adv-x="1495" 
d="M127 0v1434h397v-582l494 582h471l-543 -617l561 -817h-477l-360 532l-146 -161v-371h-397z" />
    <glyph glyph-name="L" unicode="L" horiz-adv-x="1261" 
d="M127 0v1434h397v-1086h695v-348h-1092z" />
    <glyph glyph-name="M" unicode="M" horiz-adv-x="1777" 
d="M127 0v1434h420l342 -555l342 555h420v-1434h-396v823l-366 -561h-8l-365 557v-819h-389z" />
    <glyph glyph-name="N" unicode="N" horiz-adv-x="1607" 
d="M127 0v1434h371l589 -758v758h394v-1434h-348l-613 786v-786h-393z" />
    <glyph glyph-name="O" unicode="O" horiz-adv-x="1701" 
d="M78 717c0 101.333 19.8311 197.833 59.498 289.5s93.5 170.834 161.5 237.501s150 119.667 246 159s198.333 59 307 59s210.834 -19.5 306.501 -58.5s177.334 -91.667 245.001 -158s121 -145.333 160 -237s58.5 -188.834 58.5 -291.501
c0 -101.333 -19.833 -198 -59.5 -290s-93.5 -171.333 -161.5 -238s-150 -119.667 -246 -159s-198.333 -59 -307 -59c-144.667 0 -276 33.167 -394 99.5s-210.167 156.333 -276.5 270s-99.5 239.167 -99.5 376.5zM484.998 717c0 -106 34.666 -197 103.999 -273
s157 -114 263 -114c107.333 0 195 37.5 263 112.5s102 166.5 102 274.5c0 106 -34.667 197 -104 273s-157.666 114 -264.999 114c-106 0 -193 -37.5 -261 -112.5s-102 -166.5 -102 -274.5z" />
    <glyph glyph-name="P" unicode="P" horiz-adv-x="1378" 
d="M127 0l0.000976562 1434h614c182.667 0 327.667 -44.833 435 -134.5s161 -214.167 161 -373.5c0 -110 -26.833 -204.333 -80.5 -283s-126.334 -137.167 -218.001 -175.5s-197.5 -57.5 -317.5 -57.5h-197v-410h-397zM524.001 721l189 -0.000976562
c70.667 0 126.167 17 166.5 51s60.5 80.333 60.5 139c0 60.667 -20.167 107.334 -60.5 140.001s-96.5 49 -168.5 49h-187v-379z" />
    <glyph glyph-name="Q" unicode="Q" horiz-adv-x="1701" 
d="M78 717c0 101.333 19.8311 197.833 59.498 289.5s93.5 170.834 161.5 237.501s150 119.667 246 159s198.333 59 307 59s210.834 -19.5 306.501 -58.5s177.334 -91.667 245.001 -158s121 -145.333 160 -237s58.5 -188.834 58.5 -291.501
c0 -154 -42.333 -291.333 -127 -412l147 -125l-200 -223l-158 141c-130 -84.667 -275.333 -127 -436 -127c-144.667 0 -276 33.167 -394 99.5s-210.167 156.333 -276.5 270s-99.5 239.167 -99.5 376.5zM484.998 713c0 -106.667 34.5 -198.167 103.5 -274.5
s156.833 -114.5 263.5 -114.5c50 0 98.333 8.66699 145 26l-198 170l200 225l195 -176c16.667 44.667 25 92.667 25 144c0 107.333 -34.833 199.333 -104.5 276s-158.5 115 -266.5 115c-106 0 -193 -38.167 -261 -114.5s-102 -168.5 -102 -276.5z" />
    <glyph glyph-name="R" unicode="R" horiz-adv-x="1472" 
d="M127 0l-0.000976562 1434h678c208.667 0 364.334 -51.333 467.001 -154c84.667 -84.667 127 -198 127 -340c0 -106 -26 -196 -78 -270s-124.333 -130.667 -217 -170l342 -500h-459l-289 434h-174v-434h-397zM523.999 745h262.001c67.333 0 119.666 15.5 156.999 46.5
s56 73.833 56 128.5c0 55.333 -18.833 97.5 -56.5 126.5s-90.5 43.5 -158.5 43.5h-260v-345z" />
    <glyph glyph-name="S" unicode="S" horiz-adv-x="1335" 
d="M18 213l222.003 264.003c143.333 -114.667 298.333 -172 465 -172c52.667 0 93 8.83301 121 26.5s42 43.167 42 76.5c0 30.667 -16.5 55.667 -49.5 75s-96.833 40 -191.5 62c-48.667 11.333 -90.834 21.833 -126.501 31.5s-73.5 21.834 -113.5 36.501s-74 30 -102 46
s-55.333 35.333 -82 58s-48 47.167 -64 73.5s-28.833 57.166 -38.5 92.499s-14.5 74 -14.5 116c0 135.333 50.167 245.666 150.5 330.999s235.166 128 404.499 128c235.333 0 432 -63.333 590 -190l-199 -281c-134 94 -267.667 141 -401 141
c-46.667 0 -82.334 -8.83301 -107.001 -26.5s-37 -40.834 -37 -69.501c0 -33.333 16.5 -59.166 49.5 -77.499s99.167 -38.833 198.5 -61.5c88 -19.333 162.667 -40.5 224 -63.5s116.5 -51.833 165.5 -86.5s85.5 -76.834 109.5 -126.501s36 -107.834 36 -174.501
c0 -144.667 -52.667 -258.667 -158 -342s-246 -125 -422 -125c-129.333 0 -252 20.167 -368 60.5s-217.333 99.5 -304 177.5z" />
    <glyph glyph-name="T" unicode="T" horiz-adv-x="1351" 
d="M47 1085v349h1258v-349h-431v-1085h-397v1085h-430z" />
    <glyph glyph-name="U" unicode="U" horiz-adv-x="1552" 
d="M109 629l-0.00292969 804.998h403v-797c0 -100.667 23.333 -176.667 70 -228s111.334 -77 194.001 -77s147.334 24.667 194.001 74s70 123 70 221v807h404v-795c0 -114 -15.667 -213.667 -47 -299s-76.666 -154.666 -135.999 -207.999s-129.833 -93.166 -211.5 -119.499
s-174.167 -39.5 -277.5 -39.5c-210 0 -373 54.5 -489 163.5s-174 273.167 -174 492.5z" />
    <glyph glyph-name="V" unicode="V" horiz-adv-x="1556" 
d="M12 1434h445l325 -908l326 908h436l-581 -1444h-369z" />
    <glyph glyph-name="W" unicode="W" horiz-adv-x="2287" 
d="M31 1434h420l249 -830l277 834h342l276 -834l250 830h412l-479 -1444h-346l-289 825l-287 -825h-346z" />
    <glyph glyph-name="X" unicode="X" horiz-adv-x="1499" 
d="M23 0l491 729l-471 705h457l254 -404l256 404h446l-471 -701l492 -733h-457l-275 432l-276 -432h-446z" />
    <glyph glyph-name="Y" unicode="Y" horiz-adv-x="1480" 
d="M-4 1434h453l294 -523l297 523h445l-545 -891v-543h-399v537z" />
    <glyph glyph-name="Z" unicode="Z" horiz-adv-x="1429" 
d="M82 0v289l719 809h-695v336h1244v-289l-719 -809h719v-336h-1268z" />
    <glyph glyph-name="bracketleft" unicode="[" horiz-adv-x="935" 
d="M135 -266v1700h709v-265h-361v-1171h361v-264h-709z" />
    <glyph glyph-name="backslash" unicode="\" horiz-adv-x="1095" 
d="M-49 1634h315l908 -1896h-316z" />
    <glyph glyph-name="bracketright" unicode="]" horiz-adv-x="935" 
d="M92 -2h361v1171h-361v265h709v-1700h-709v264z" />
    <glyph glyph-name="asciicircum" unicode="^" 
d="M86 1010l295 422h262l295 -422h-272l-156 198l-156 -198h-268z" />
    <glyph glyph-name="underscore" unicode="_" horiz-adv-x="1228" 
d="M-4 -90h1237v-238h-1237v238z" />
    <glyph glyph-name="grave" unicode="`" 
d="M180 1464l363 117l213 -379h-275z" />
    <glyph glyph-name="a" unicode="a" horiz-adv-x="1226" 
d="M49 322c0 112 39 197.999 117 257.999s183.667 90 317 90c99.333 0 188.333 -14.333 267 -43v18c0 120 -74 180 -222 180c-101.333 0 -203 -20.333 -305 -61l-80 274c140.667 57.333 290.334 86 449.001 86c191.333 0 332 -45 422 -135
c79.333 -77.333 119 -194.666 119 -351.999v-637h-385v115c-84.667 -93.333 -193.334 -140 -326.001 -140c-109.333 0 -198.833 30.5 -268.5 91.5s-104.5 146.167 -104.5 255.5zM424 339.999c0 -37.333 12.667 -66.834 38 -88.501s58.333 -32.5 99 -32.5
c57.333 0 103.833 16.667 139.5 50s53.5 77.333 53.5 132v52c-45.333 18.667 -96 28 -152 28s-99.667 -12.667 -131 -38s-47 -59.666 -47 -102.999z" />
    <glyph glyph-name="b" unicode="b" horiz-adv-x="1384" 
d="M104 0l0.000976562 1495h390v-534c44.667 54 92.667 96.167 144 126.5s115 45.5 191 45.5c66 0 128.667 -13.5 188 -40.5s111.666 -64.833 156.999 -113.5s81.166 -109.667 107.499 -183s39.5 -153.666 39.5 -240.999s-13.167 -167.833 -39.5 -241.5s-62 -135 -107 -184
s-97.167 -87 -156.5 -114s-121.666 -40.5 -186.999 -40.5c-76.667 0 -141.5 14.333 -194.5 43s-100.5 67.667 -142.5 117v-135h-390zM485.001 552.999c0 -72.667 21.833 -132.833 65.5 -180.5s97.167 -71.5 160.5 -71.5c64.667 0 118.667 23.667 162 71s65 109 65 185
c0 72 -21.833 131.667 -65.5 179s-97.5 71 -161.5 71c-63.333 0 -116.833 -23.833 -160.5 -71.5s-65.5 -108.5 -65.5 -182.5z" />
    <glyph glyph-name="c" unicode="c" horiz-adv-x="1165" 
d="M59 553c0 104 24.8359 199.831 74.5029 287.498s120.167 157.834 211.5 210.501s194 79 308 79c212 0 369.667 -82.333 473 -247l-260 -189c-52 72.667 -118.667 109 -200 109c-68.667 0 -123.834 -23.833 -165.501 -71.5s-62.5 -107.167 -62.5 -178.5
c0 -72 20.667 -132 62 -180s94.333 -72 159 -72c43.333 0 80.666 9.5 111.999 28.5s63.666 48.5 96.999 88.5l265 -191c-113.333 -169.333 -278 -254 -494 -254c-108.667 0 -207.667 26.167 -297 78.5s-158.833 122.833 -208.5 211.5s-74.5 185.334 -74.5 290.001z" />
    <glyph glyph-name="d" unicode="d" horiz-adv-x="1384" 
d="M63 553c0 87.333 13.167 167.834 39.5 241.501s61.833 135 106.5 184s96.5 87 155.5 114s121.167 40.5 186.5 40.5c76.667 0 141.667 -14.333 195 -43s101.666 -67.667 144.999 -117v522h389v-1495h-389v147c-44.667 -54 -93.167 -96.167 -145.5 -126.5
s-116.5 -45.5 -192.5 -45.5c-65.333 0 -127.666 13.5 -186.999 40.5s-111.5 64.833 -156.5 113.5s-80.667 109.667 -107 183s-39.5 153.666 -39.5 240.999zM444 553.001c0 -72.667 22.168 -132.833 66.501 -180.5s98.166 -71.5 161.499 -71.5s116.666 24 159.999 72
s65 109.333 65 184c0 72 -21.667 131.667 -65 179s-96.666 71 -159.999 71c-64 0 -118 -23.667 -162 -71s-66 -108.333 -66 -183z" />
    <glyph glyph-name="e" unicode="e" horiz-adv-x="1239" 
d="M59 553c0 80 13.8291 155.666 41.4961 226.999s65.834 132.833 114.501 184.5s107.834 92.667 177.501 123s144.834 45.5 225.501 45.5c92.667 0 175.334 -16.167 248.001 -48.5s131.334 -76.666 176.001 -132.999s78.5 -120.5 101.5 -192.5s34.5 -149.667 34.5 -233
c0 -35.333 -0.666992 -62 -2 -80h-742c15.333 -59.333 43.833 -104.5 85.5 -135.5s93.167 -46.5 154.5 -46.5c86.667 0 168.667 37.667 246 113l215 -178c-118 -150.667 -278.667 -226 -482 -226c-174.667 0 -317.334 53.333 -428.001 160s-166 246.667 -166 420z
M427.996 644.999l385 -0.000976562c-7.33301 62 -28 111 -62 147s-77.333 54 -130 54c-50 0 -92.167 -18.167 -126.5 -54.5s-56.5 -85.166 -66.5 -146.499z" />
    <glyph glyph-name="f" unicode="f" horiz-adv-x="827" 
d="M45 797l-0.000976562 304.999h129v24c0 128.667 31.333 224.334 94 287.001c64 64 160.333 96 289 96c101.333 0 186 -10 254 -30v-275c-49.333 15.333 -97.666 23 -144.999 23c-74 0 -111 -35 -111 -105v-26h254v-299h-248v-797h-387v797h-129z" />
    <glyph glyph-name="g" unicode="g" horiz-adv-x="1384" 
d="M63 616c0 77.333 12.998 148.831 38.998 214.498s61 120.334 105 164.001s95 77.667 153 102s119 36.5 183 36.5c76.667 0 141.834 -13.5 195.501 -40.5s104.5 -65.5 152.5 -115.5v131h389v-842c0 -199.333 -47.667 -346.666 -143 -441.999
c-104 -104 -266.667 -156 -488 -156c-204.667 0 -389.667 42.333 -555 127l125 258c125.333 -69.333 254.333 -104 387 -104c96.667 0 169.334 23.167 218.001 69.5s73 113.833 73 202.5v43c-44.667 -51.333 -94.167 -91.833 -148.5 -121.5s-118.833 -44.5 -193.5 -44.5
c-140 0 -257 47.167 -351 141.5s-141 219.833 -141 376.5zM443.998 609.998c0 -61.333 21.333 -112.166 64 -152.499s97.334 -60.5 164.001 -60.5c65.333 0 119.166 20.667 161.499 62s63.5 93.666 63.5 156.999c0 61.333 -21.167 112.166 -63.5 152.499
s-96.166 60.5 -161.499 60.5c-66.667 0 -121.334 -20.667 -164.001 -62s-64 -93.666 -64 -156.999z" />
    <glyph glyph-name="h" unicode="h" horiz-adv-x="1298" 
d="M104 0l-0.000976562 1495h390v-539c92.667 118 203 177 331 177c117.333 0 209.5 -36.333 276.5 -109s100.5 -172.334 100.5 -299.001v-725h-389v600c0 59.333 -14.167 105.166 -42.5 137.499s-66.166 48.5 -113.499 48.5c-48.667 0 -88 -16.333 -118 -49
s-45 -78.334 -45 -137.001v-600h-390z" />
    <glyph glyph-name="i" unicode="i" horiz-adv-x="614" 
d="M104 1208v287h406v-287h-406zM113 0v1108h389v-1108h-389z" />
    <glyph glyph-name="j" unicode="j" horiz-adv-x="618" 
d="M-53 -61c10.667 -1.33301 27.666 -2.00098 50.999 -2.00098c39.333 0 68.333 9.83301 87 29.5s28 52.834 28 99.501v1042h389v-1059c0 -136 -33.167 -233.833 -99.5 -293.5s-165.166 -89.5 -296.499 -89.5c-27.333 0 -80.333 5 -159 15v258zM103.999 1208v287h406v-287
h-406z" />
    <glyph glyph-name="k" unicode="k" horiz-adv-x="1234" 
d="M104 0v1495h390v-758l301 371h440l-385 -444l395 -664h-428l-223 377l-100 -117v-260h-390z" />
    <glyph glyph-name="l" unicode="l" horiz-adv-x="614" 
d="M113 0v1495h389v-1495h-389z" />
    <glyph glyph-name="m" unicode="m" horiz-adv-x="1988" 
d="M104 0l0.000976562 1108h390v-152c92.667 118 202.334 177 329.001 177c73.333 0 137.666 -15.667 192.999 -47s97.666 -76 126.999 -134c51.333 59.333 106.5 104.333 165.5 135s127.167 46 204.5 46c118.667 0 211.5 -35.5 278.5 -106.5s100.5 -170.833 100.5 -299.5
v-727h-389v602c0 59.333 -13.5 104.833 -40.5 136.5s-63.833 47.5 -110.5 47.5c-47.333 0 -85.833 -16 -115.5 -48s-44.5 -77.333 -44.5 -136v-602h-389v602c0 59.333 -13.667 104.833 -41 136.5s-64.333 47.5 -111 47.5c-47.333 0 -85.333 -16 -114 -48
s-43 -77.333 -43 -136v-602h-390z" />
    <glyph glyph-name="n" unicode="n" horiz-adv-x="1298" 
d="M104 0l-0.000976562 1108h390v-156c94.667 120.667 205 181 331 181c117.333 0 209.5 -36.333 276.5 -109s100.5 -172.334 100.5 -299.001v-725h-389v600c0 59.333 -14.167 105.166 -42.5 137.499s-66.166 48.5 -113.499 48.5c-48.667 0 -88 -16.333 -118 -49
s-45 -78.334 -45 -137.001v-600h-390z" />
    <glyph glyph-name="o" unicode="o" horiz-adv-x="1343" 
d="M59 553c0 78 15.498 152.5 46.498 223.5s73.333 132.667 127 185s118.834 94 195.501 125s158.667 46.5 246 46.5c115.333 0 219.833 -26 313.5 -78s166.5 -122.333 218.5 -211s78 -185.667 78 -291c0 -78 -15.5 -152.5 -46.5 -223.5s-73.167 -132.667 -126.5 -185
s-118.333 -94 -195 -125s-158.667 -46.5 -246 -46.5c-86.667 0 -168.167 15.333 -244.5 46s-141.166 72 -194.499 124s-95.333 113.667 -126 185s-46 146.333 -46 225zM437.998 553c0 -68.667 22.499 -127.5 67.499 -176.5s101.167 -73.5 168.5 -73.5
c68.667 0 124.334 24 167.001 72s64 107.333 64 178c0 68.667 -22.333 127.5 -67 176.5s-100.667 73.5 -168 73.5c-68.667 0 -124.5 -24.167 -167.5 -72.5s-64.5 -107.5 -64.5 -177.5z" />
    <glyph glyph-name="p" unicode="p" horiz-adv-x="1384" 
d="M104 -328l0.000976562 1436h390v-147c44.667 54 92.667 96.167 144 126.5s115 45.5 191 45.5c66 0 128.667 -13.5 188 -40.5s111.666 -64.833 156.999 -113.5s81.166 -109.667 107.499 -183s39.5 -153.666 39.5 -240.999s-13.167 -167.833 -39.5 -241.5
s-62 -135 -107 -184s-97.167 -87 -156.5 -114s-121.666 -40.5 -186.999 -40.5c-76.667 0 -141.5 14.333 -194.5 43s-100.5 67.667 -142.5 117v-463h-390zM485.001 552.999c0 -72.667 21.833 -132.833 65.5 -180.5s97.167 -71.5 160.5 -71.5c64.667 0 118.667 23.667 162 71
s65 109 65 185c0 72 -21.833 131.667 -65.5 179s-97.5 71 -161.5 71c-63.333 0 -116.833 -23.833 -160.5 -71.5s-65.5 -108.5 -65.5 -182.5z" />
    <glyph glyph-name="q" unicode="q" horiz-adv-x="1384" 
d="M63 553c0 87.333 13.167 167.834 39.5 241.501s61.833 135 106.5 184s96.5 87 155.5 114s121.167 40.5 186.5 40.5c76.667 0 141.667 -14.333 195 -43s101.666 -67.667 144.999 -117v135h389v-1436h-389v475c-44.667 -54 -93.167 -96.167 -145.5 -126.5
s-116.5 -45.5 -192.5 -45.5c-65.333 0 -127.666 13.5 -186.999 40.5s-111.5 64.833 -156.5 113.5s-80.667 109.667 -107 183s-39.5 153.666 -39.5 240.999zM444 553.001c0 -72.667 22.168 -132.833 66.501 -180.5s98.166 -71.5 161.499 -71.5s116.666 24 159.999 72
s65 109.333 65 184c0 72 -21.667 131.667 -65 179s-96.666 71 -159.999 71c-64 0 -118 -23.667 -162 -71s-66 -108.333 -66 -183z" />
    <glyph glyph-name="r" unicode="r" horiz-adv-x="876" 
d="M104 0v1108h390v-223c66.667 160.667 176.667 241 330 241h20v-409h-33c-211.333 0 -317 -124.333 -317 -373v-344h-390z" />
    <glyph glyph-name="s" unicode="s" horiz-adv-x="1052" 
d="M20 139l146 236.003c128 -84.667 255 -127 381 -127c65.333 0 98 21 98 63c0 20 -13.333 36.5 -40 49.5s-72.667 28.167 -138 45.5c-49.333 13.333 -91.333 26 -126 38s-70 28 -106 48s-64.833 41.667 -86.5 65s-39.5 52.666 -53.5 87.999s-21 75 -21 119
c0 115.333 41 205.166 123 269.499s189 96.5 321 96.5c81.333 0 162 -11.333 242 -34s151.667 -54.334 215 -95.001l-133 -245c-57.333 31.333 -115.333 56.166 -174 74.499s-110 27.5 -154 27.5c-29.333 0 -51.666 -5 -66.999 -15s-23 -24 -23 -42
c0 -20 13.167 -36.5 39.5 -49.5s73.166 -29.5 140.499 -49.5c49.333 -14 91.333 -27.333 126 -40s70 -29 106 -49s64.833 -41.667 86.5 -65s39.5 -52.166 53.5 -86.499s21 -72.833 21 -115.5c0 -119.333 -40.667 -211 -122 -275s-191.333 -96 -330 -96
c-198 0 -373 54.667 -525 164z" />
    <glyph glyph-name="t" unicode="t" horiz-adv-x="882" 
d="M41 795v313.001h131v281h389v-281h258v-313h-258v-375c0 -38.667 8.66699 -66.834 26 -84.501s44.333 -26.5 81 -26.5c47.333 0 96.333 12.333 147 37v-305c-76.667 -42.667 -166.667 -64 -270 -64c-121.333 0 -213.833 29.167 -277.5 87.5s-95.5 151.5 -95.5 279.5v451
h-131z" />
    <glyph glyph-name="u" unicode="u" horiz-adv-x="1298" 
d="M96 383l0.00195312 724.997h389v-600c0 -59.333 14.333 -105.166 43 -137.499s67 -48.5 115 -48.5c47.333 0 86.166 16.333 116.499 49s45.5 78.334 45.5 137.001v600h389v-1108h-389v152c-92.667 -118 -203.334 -177 -332.001 -177c-117.333 0 -209.5 36.333 -276.5 109
s-100.5 172.334 -100.5 299.001z" />
    <glyph glyph-name="v" unicode="v" horiz-adv-x="1280" 
d="M20 1108h410l213 -647l213 647h404l-443 -1116h-354z" />
    <glyph glyph-name="w" unicode="w" horiz-adv-x="1763" 
d="M25 1108h381l145 -557l170 561h321l172 -565l150 561h375l-342 -1116h-336l-180 575l-185 -575h-334z" />
    <glyph glyph-name="x" unicode="x" horiz-adv-x="1206" 
d="M16 0l373 559l-366 549h419l164 -272l164 272h412l-365 -547l373 -561h-418l-172 285l-174 -285h-410z" />
    <glyph glyph-name="y" unicode="y" horiz-adv-x="1282" 
d="M23 1108h407.001l221 -668l209 668h400l-406 -1081c-48.667 -131.333 -104 -224.333 -166 -279s-147.333 -82 -256 -82c-122.667 0 -241.334 32 -356.001 96l121 273c66 -40 122.667 -60 170 -60c38.667 0 68.667 15 90 45z" />
    <glyph glyph-name="z" unicode="z" horiz-adv-x="1153" 
d="M66 0v256l512 543h-494v309h1010v-256l-514 -543h514v-309h-1028z" />
    <glyph glyph-name="braceleft" unicode="{" horiz-adv-x="1003" 
d="M70 459v258.003h32c84 0 145.333 14.667 184 44s58 81.666 58 156.999c0 12 -1 37.667 -3 77s-3 64 -3 74c0 77.333 16.5 141.5 49.5 192.5s89.333 93.5 169 127.5s187.167 59 322.5 75l59 -227c-72.667 -16 -127.334 -34.167 -164.001 -54.5
s-60.834 -43.5 -72.501 -69.5s-17.5 -61.667 -17.5 -107c0 -10.667 1 -33.667 3 -69s3 -60.333 3 -75c0 -73.333 -19 -132.166 -57 -176.499s-95.333 -76.833 -172 -97.5c76.667 -20.667 134 -53.334 172 -98.001s57 -103.667 57 -177c0 -14.667 -1 -39.334 -3 -74.001
s-3 -57.667 -3 -69c0 -45.333 5.83301 -81 17.5 -107s35.834 -49.167 72.501 -69.5s91.334 -38.5 164.001 -54.5l-59 -228c-135.333 16 -242.833 41 -322.5 75s-136 76.5 -169 127.5s-49.5 115.167 -49.5 192.5c0 10 1 34.833 3 74.5s3 65.5 3 77.5
c0 75.333 -19.333 127.666 -58 156.999s-100 44 -184 44h-32z" />
    <glyph glyph-name="bar" unicode="|" horiz-adv-x="727" 
d="M215 -262v1896h297v-1896h-297z" />
    <glyph glyph-name="braceright" unicode="}" horiz-adv-x="1003" 
d="M66 -61c54.667 12 98.667 24.668 132 38.001s59 29.666 77 48.999s29.833 39.666 35.5 60.999s8.5 49 8.5 83c0 11.333 -1 34.333 -3 69s-3 59.334 -3 74.001c0 73.333 19.167 132.333 57.5 177s95.833 77.334 172.5 98.001c-76.667 20.667 -134.167 53.167 -172.5 97.5
s-57.5 103.166 -57.5 176.499c0 14.667 1 39.667 3 75s3 58.333 3 69c0 34 -2.83301 61.667 -8.5 83s-17.5 41.666 -35.5 60.999s-43.667 35.666 -77 48.999s-77.333 26 -132 38l59 227c135.333 -16 242.833 -41 322.5 -75s136 -76.5 169 -127.5s49.5 -115.167 49.5 -192.5
c0 -10 -1.16699 -34.667 -3.5 -74s-3.5 -65 -3.5 -77c0 -75.333 19.333 -127.666 58 -156.999s100 -44 184 -44h33v-258h-33c-84 0 -145.333 -14.667 -184 -44s-58 -81.666 -58 -156.999c0 -12 1.16699 -37.833 3.5 -77.5s3.5 -64.5 3.5 -74.5
c0 -77.333 -16.5 -141.5 -49.5 -192.5s-89.333 -93.5 -169 -127.5s-187.167 -59 -322.5 -75z" />
    <glyph glyph-name="asciitilde" unicode="~" horiz-adv-x="1034" 
d="M84 502c23.333 104.667 54.667 181.667 94 231s92.666 74 159.999 74c46 0 106.333 -13.333 181 -40s120.667 -40 138 -40c26.667 0 47.167 7 61.5 21s28.833 38.333 43.5 73l188 -51c-23.333 -104.667 -54.666 -181.667 -93.999 -231s-92.666 -74 -159.999 -74
c-45.333 0 -105.666 13.333 -180.999 40s-122 40 -140 40c-26.667 0 -46.834 -7 -60.501 -21s-27.834 -38.333 -42.501 -73z" />
    <glyph glyph-name="uni00A0" unicode="&#xa0;" horiz-adv-x="567" 
 />
    <glyph glyph-name="cent" unicode="&#xa2;" horiz-adv-x="1177" 
d="M66 727c0 106 24 202.168 72 288.501s116.333 155.166 205 206.499s190 78.333 304 81l25 143h235l-30 -178c110 -40.667 196 -107 258 -199l-238 -182c-30.667 37.333 -62.667 64.666 -96 81.999l-94 -516c72 9.33301 136.667 48 194 116l236 -172
c-107.333 -156.667 -260.333 -237.667 -459 -243l-29 -166h-235l35 200c-114.667 39.333 -207.167 107.833 -277.5 205.5s-105.5 208.834 -105.5 333.501zM403 727.001c0 -54.667 9.99902 -102.667 29.999 -144s48.333 -73.333 85 -96l92 519
c-61.333 -8.66699 -111.166 -39.667 -149.499 -93s-57.5 -115.333 -57.5 -186z" />
    <glyph glyph-name="sterling" unicode="&#xa3;" horiz-adv-x="1308" 
d="M90 0v236l154 59v244h-154v278h154v105c0 169.333 47 301 141 395s224.333 141 391 141c195.333 0 354.333 -69 477 -207l-241 -264c-64 78 -133.667 117 -209 117c-50.667 0 -90.667 -16.167 -120 -48.5s-44 -76.833 -44 -133.5v-105h442v-278h-442v-226h600v-313h-1149
z" />
    <glyph glyph-name="yen" unicode="&#xa5;" horiz-adv-x="1449" 
d="M8 1434h451l270 -471l270 471h443l-428 -650h284v-245h-376v-103h376v-246h-376v-190h-394v190h-376v246h376v103h-376v245h282z" />
    <glyph glyph-name="dieresis" unicode="&#xa8;" 
d="M119 1202v293h338v-293h-338zM567 1202v293h338v-293h-338z" />
    <glyph glyph-name="copyright" unicode="&#xa9;" horiz-adv-x="1699" 
d="M109 717c0 99.333 19.333 194.67 58 286.003s91 170.666 157 237.999s145 121 237 161s189 60 291 60s198.833 -19.833 290.5 -59.5s170.167 -92.834 235.5 -159.501s117.166 -145.834 155.499 -237.501s57.5 -187.834 57.5 -288.501
c0 -99.333 -19.333 -194.833 -58 -286.5s-91 -171 -157 -238s-145 -120.667 -237 -161s-189 -60.5 -291 -60.5s-198.833 19.833 -290.5 59.5s-170.167 93 -235.5 160s-117.166 146.333 -155.499 238s-57.5 187.834 -57.5 288.501zM195 713.004
c0 -89.333 16.6689 -174.5 50.002 -255.5s78.666 -151.167 135.999 -210.5s126.666 -106.5 207.999 -141.5s167.666 -52.5 258.999 -52.5c92 0 178.833 17.667 260.5 53s151.334 83 209.001 143s103.334 131 137.001 213s50.5 168.333 50.5 259
c0 119.333 -28.167 229.333 -84.5 330s-134.666 180.667 -234.999 240s-211.5 89 -333.5 89c-92 0 -178.833 -17.667 -260.5 -53s-151.334 -82.833 -209.001 -142.5s-103.334 -130.5 -137.001 -212.5s-50.5 -168.333 -50.5 -259zM449.002 727.004
c0 74 17.332 142 51.999 204s84 111.5 148 148.5s136.333 55.5 217 55.5c76.667 0 141.5 -14 194.5 -42s98.833 -68 137.5 -120l-166 -131c-50 61.333 -107.333 92 -172 92c-54 0 -98.167 -20 -132.5 -60s-51.5 -89.667 -51.5 -149c0 -58 17.167 -106.667 51.5 -146
s78.5 -59 132.5 -59c38 0 70.167 7.83301 96.5 23.5s52.833 39.167 79.5 70.5l168 -118c-42 -56.667 -90 -100.334 -144 -131.001s-120.667 -46 -200 -46c-119.333 0 -217.666 38.833 -294.999 116.5s-116 174.834 -116 291.501z" />
    <glyph glyph-name="guillemotleft" unicode="&#xab;" horiz-adv-x="1292" 
d="M61 500v98l328 438l281 -137l-267 -350l267 -348l-281 -140zM592 541v16l360 479l279 -137l-266 -350l266 -348l-279 -140z" />
    <glyph glyph-name="uni00AD" unicode="&#xad;" horiz-adv-x="835" 
d="M82 469v342h672v-342h-672z" />
    <glyph glyph-name="registered" unicode="&#xae;" horiz-adv-x="1699" 
d="M109 717c0 99.333 19.333 194.67 58 286.003s91 170.666 157 237.999s145 121 237 161s189 60 291 60s198.833 -19.833 290.5 -59.5s170.167 -92.834 235.5 -159.501s117.166 -145.834 155.499 -237.501s57.5 -187.834 57.5 -288.501
c0 -99.333 -19.333 -194.833 -58 -286.5s-91 -171 -157 -238s-145 -120.667 -237 -161s-189 -60.5 -291 -60.5s-198.833 19.833 -290.5 59.5s-170.167 93 -235.5 160s-117.166 146.333 -155.499 238s-57.5 187.834 -57.5 288.501zM195 713.004
c0 -89.333 16.6689 -174.5 50.002 -255.5s78.666 -151.167 135.999 -210.5s126.666 -106.5 207.999 -141.5s167.666 -52.5 258.999 -52.5c92 0 178.833 17.667 260.5 53s151.334 83 209.001 143s103.334 131 137.001 213s50.5 168.333 50.5 259
c0 119.333 -28.167 229.333 -84.5 330s-134.666 180.667 -234.999 240s-211.5 89 -333.5 89c-92 0 -178.833 -17.667 -260.5 -53s-151.334 -82.833 -209.001 -142.5s-103.334 -130.5 -137.001 -212.5s-50.5 -168.333 -50.5 -259zM524.002 344.004v788.999h367
c118 0 206.667 -29.667 266 -89c45.333 -45.333 68 -106.666 68 -183.999c0 -116 -54 -196.667 -162 -242l188 -274h-252l-163 240h-93v-240h-219zM743.002 754.003l144 -0.000976562c38 0 67.333 8.33301 88 25s31 40.334 31 71.001s-10.667 54 -32 70s-51 24 -89 24h-142
v-190z" />
    <glyph glyph-name="acute" unicode="&#xb4;" 
d="M268 1202l213 379l363 -117l-301 -262h-275z" />
    <glyph glyph-name="cedilla" unicode="&#xb8;" 
d="M223 -223l189 254h256l-136 -385z" />
    <glyph glyph-name="guillemotright" unicode="&#xbb;" horiz-adv-x="1292" 
d="M61 199l267 350l-267 348l281 139l358 -479v-16l-358 -480zM625 199l266 350l-266 348l278 139l328 -438v-98l-328 -439z" />
    <glyph glyph-name="circumflex" unicode="&#x2c6;" 
d="M92 1202l262 338h316l262 -338h-250l-172 125l-172 -125h-246z" />
    <glyph glyph-name="ring" unicode="&#x2da;" 
d="M240 1475c0 70 27.333 130.5 82 181.5s118 76.5 190 76.5s135.333 -25.833 190 -77.5s82 -113.5 82 -185.5c0 -69.333 -27.333 -130 -82 -182s-118 -78 -190 -78s-135.333 26.333 -190 79s-82 114.667 -82 186zM375 1470c0 -37.333 13.333 -69.167 40 -95.5
s59 -39.5 97 -39.5s70.333 13.667 97 41s40 60.333 40 99c0 36 -13.333 67.167 -40 93.5s-59 39.5 -97 39.5s-70.333 -13.5 -97 -40.5s-40 -59.5 -40 -97.5z" />
    <glyph glyph-name="tilde" unicode="&#x2dc;" 
d="M80 1239c22 104.667 52.667 181.667 92 231s93.333 74 162 74c46 0 106.333 -13.333 181 -40s120.667 -40 138 -40c26.667 0 47.167 7.16699 61.5 21.5s28.833 38.833 43.5 73.5l186 -52c-22 -104.667 -52.667 -181.667 -92 -231s-93.333 -74 -162 -74
c-46 0 -106.333 13.333 -181 40s-120.667 40 -138 40c-26.667 0 -47.167 -7 -61.5 -21s-28.833 -38.333 -43.5 -73z" />
    <glyph glyph-name="afii10023" unicode="&#x401;" horiz-adv-x="1366" 
d="M127 0v1434h1153v-338h-760v-217h688v-314h-688v-227h770v-338h-1163zM326 1530v293h338v-293h-338zM774 1530v293h338v-293h-338z" />
    <glyph glyph-name="afii10051" unicode="&#x402;" horiz-adv-x="1761" 
d="M47 1085l-0.00195312 349.001h1258v-349h-492v-235c104.667 61.333 220 92 346 92c74 0 140.833 -10.5 200.5 -31.5s112.167 -52.667 157.5 -95s80.333 -97.833 105 -166.5s37 -148.334 37 -239.001c0 -91.333 -12.333 -172.166 -37 -242.499s-59.5 -127.5 -104.5 -171.5
s-97.667 -77.167 -158 -99.5s-127.166 -33.5 -200.499 -33.5c-30.667 0 -70.167 2.66699 -118.5 8s-85.833 11.333 -112.5 18l43 344c16.667 -2.66699 43.334 -4 80.001 -4c129.333 0 194 57.333 194 172c0 53.333 -17.5 95.666 -52.5 126.999s-84.5 47 -148.5 47
c-46 0 -90 -7.33301 -132 -22s-75 -33 -99 -55v-498h-397v1085h-369z" />
    <glyph glyph-name="afii10052" unicode="&#x403;" horiz-adv-x="1200" 
d="M127 0v1434h1032v-349h-635v-1085h-397zM424 1530l213 379l362 -117l-301 -262h-274z" />
    <glyph glyph-name="afii10053" unicode="&#x404;" horiz-adv-x="1495" 
d="M78 717c0 103.333 19.167 200.835 57.5 292.502s90.666 170.667 156.999 237s146.5 118.833 240.5 157.5s194.333 58 301 58c236.667 0 428.334 -89.333 575.001 -268l-268 -229c-84.667 95.333 -188.667 143 -312 143c-77.333 0 -144.833 -22.333 -202.5 -67
s-99.167 -103.667 -124.5 -177h465v-280h-471c23.333 -78 64.166 -140.833 122.499 -188.5s128.5 -71.5 210.5 -71.5c120 0 226 51.667 318 155l289 -205c-72.667 -96.667 -158.167 -171.334 -256.5 -224.001s-219.166 -79 -362.499 -79
c-135.333 0 -259.333 31.833 -372 95.5s-202 152.667 -268 267s-99 242.166 -99 383.499z" />
    <glyph glyph-name="afii10054" unicode="&#x405;" horiz-adv-x="1335" 
d="M18 213l222.003 264.003c143.333 -114.667 298.333 -172 465 -172c52.667 0 93 8.83301 121 26.5s42 43.167 42 76.5c0 30.667 -16.5 55.667 -49.5 75s-96.833 40 -191.5 62c-48.667 11.333 -90.834 21.833 -126.501 31.5s-73.5 21.834 -113.5 36.501s-74 30 -102 46
s-55.333 35.333 -82 58s-48 47.167 -64 73.5s-28.833 57.166 -38.5 92.499s-14.5 74 -14.5 116c0 135.333 50.167 245.666 150.5 330.999s235.166 128 404.499 128c235.333 0 432 -63.333 590 -190l-199 -281c-134 94 -267.667 141 -401 141
c-46.667 0 -82.334 -8.83301 -107.001 -26.5s-37 -40.834 -37 -69.501c0 -33.333 16.5 -59.166 49.5 -77.499s99.167 -38.833 198.5 -61.5c88 -19.333 162.667 -40.5 224 -63.5s116.5 -51.833 165.5 -86.5s85.5 -76.834 109.5 -126.501s36 -107.834 36 -174.501
c0 -144.667 -52.667 -258.667 -158 -342s-246 -125 -422 -125c-129.333 0 -252 20.167 -368 60.5s-217.333 99.5 -304 177.5z" />
    <glyph glyph-name="afii10055" unicode="&#x406;" horiz-adv-x="669" 
d="M135 0v1434h400v-1434h-400z" />
    <glyph glyph-name="afii10056" unicode="&#x407;" horiz-adv-x="669" 
d="M-57 1530v293h338v-293h-338zM135 0v1434h400v-1434h-400zM391 1530v293h338v-293h-338z" />
    <glyph glyph-name="afii10057" unicode="&#x408;" horiz-adv-x="1155" 
d="M8 217l256 242c37.333 -44.667 73.333 -78 108 -100s73 -33 115 -33c51.333 0 91.5 17 120.5 51s43.5 83.667 43.5 149v908h396v-910c0 -174 -47.333 -308.333 -142 -403c-97.333 -97.333 -228.333 -146 -393 -146c-218 0 -386 80.667 -504 242z" />
    <glyph glyph-name="afii10058" unicode="&#x409;" horiz-adv-x="2265" 
d="M-29 12l27.0029 305c24 -5.33301 54.667 -8 92 -8c18.667 0 34.667 1.83301 48 5.5s28.166 12.5 44.499 26.5s30.166 33.667 41.499 59s22.666 60.833 33.999 106.5s20.5 100.667 27.5 165s12.667 144 17 239s6.5 203.167 6.5 324.5v199h1102v-451h217
c86.667 0 166.167 -10.333 238.5 -31s135.166 -50.834 188.499 -90.501s94.833 -90.667 124.5 -153s44.5 -133.166 44.5 -212.499c0 -153.333 -51.833 -274.333 -155.5 -363s-243.5 -133 -419.5 -133h-635v1085h-334v-55c0 -123.333 -3.83301 -234.5 -11.5 -333.5
s-18.5 -184.667 -32.5 -257s-31.833 -135.5 -53.5 -189.5s-45.167 -98 -70.5 -132s-54.666 -61.5 -87.999 -82.5s-67 -35.5 -101 -43.5s-72 -12 -114 -12c-46 0 -91.833 3.66699 -137.5 11s-79.167 14.333 -100.5 21zM1411 334h207c66 0 117.333 14.667 154 44s55 72 55 128
c0 50.667 -18.5 91 -55.5 121s-87.5 45 -151.5 45h-209v-338z" />
    <glyph glyph-name="afii10059" unicode="&#x40a;" horiz-adv-x="2285" 
d="M127 0l0.00195312 1434h397v-504h510v504h398v-504h237c112.667 0 211.667 -16.667 297 -50s153.166 -85.166 203.499 -155.499s75.5 -155.5 75.5 -255.5c0 -147.333 -49.833 -262.333 -149.5 -345s-234.834 -124 -405.501 -124h-656v578h-510v-578h-397zM1432 333.999
h227c60 0 106.333 13 139 39s49 63.333 49 112c0 44.667 -16.5 80.167 -49.5 106.5s-78.5 39.5 -136.5 39.5h-229v-297z" />
    <glyph glyph-name="afii10060" unicode="&#x40b;" horiz-adv-x="1761" 
d="M47 1085v349h1258v-349h-492v-235c104.667 61.333 220 92 346 92c148.667 0 269.167 -41.5 361.5 -124.5s138.5 -197.833 138.5 -344.5v-473h-397v307c0 89.333 -15.667 156.333 -47 201s-81.333 67 -150 67c-110.667 0 -194.667 -25.667 -252 -77v-498h-397v1085h-369z
" />
    <glyph glyph-name="afii10061" unicode="&#x40c;" horiz-adv-x="1495" 
d="M127 0v1434h397v-582l494 582h471l-543 -617l561 -817h-477l-360 532l-146 -161v-371h-397zM602 1530l213 379l363 -117l-301 -262h-275z" />
    <glyph glyph-name="afii10062" unicode="&#x40e;" horiz-adv-x="1507" 
d="M0 1434l442 -0.000976562l326 -674l307 674h432l-559 -1094c-66 -129.333 -136 -221.666 -210 -276.999s-165.667 -83 -275 -83c-121.333 0 -236 32 -344 96l155 286c48.667 -32.667 102.667 -49 162 -49c47.333 0 89 20.667 125 62zM408 1839l216.996 39
c14.667 -40 33.167 -70.5 55.5 -91.5s51.5 -31.5 87.5 -31.5c36.667 0 66.334 10.5 89.001 31.5s41.334 51.5 56.001 91.5l217 -39c-15.333 -99.333 -54.666 -176.333 -117.999 -231s-144.666 -82 -243.999 -82c-98.667 0 -179.5 27.333 -242.5 82
s-102.167 131.667 -117.5 231z" />
    <glyph glyph-name="afii10145" unicode="&#x40f;" horiz-adv-x="1538" 
d="M127 0v1434h397v-1086h490v1086h397v-1434h-457v-287h-381v287h-446z" />
    <glyph glyph-name="afii10017" unicode="&#x410;" horiz-adv-x="1628" 
d="M12 0l611 1444h383l610 -1444h-426l-105 256h-553l-102 -256h-418zM649 565h322l-160 408z" />
    <glyph glyph-name="afii10018" unicode="&#x411;" horiz-adv-x="1433" 
d="M127 0v1434h1153v-338h-756v-166h277c84 0 160.667 -9.66699 230 -29s129.833 -47.666 181.5 -84.999s91.834 -85.666 120.501 -144.999s43 -126.666 43 -201.999c0 -147.333 -49.833 -262.333 -149.5 -345s-234.834 -124 -405.501 -124h-694zM524 333.997h267
c60 0 106.333 13 139 39s49 63.333 49 112c0 44.667 -16.5 80.167 -49.5 106.5s-78.5 39.5 -136.5 39.5h-269v-297z" />
    <glyph glyph-name="afii10019" unicode="&#x412;" horiz-adv-x="1464" 
d="M127 0v1434h735c174.667 0 305 -43 391 -129c62 -62 93 -140.667 93 -236c0 -148.667 -74 -255 -222 -319c92.667 -30.667 163.334 -73.834 212.001 -129.501s73 -130.834 73 -225.501c0 -123.333 -47.833 -220 -143.5 -290s-228.834 -105 -399.501 -105h-739z
M514 319.002h307.001c60.667 0 107.667 11.667 141 35s50 57 50 101c0 40 -16.333 71.5 -49 94.5s-81.334 34.5 -146.001 34.5h-303v-265zM514.001 862.002l250.001 0.000976562c125.333 0 188 43 188 129c0 39.333 -15.333 69.666 -46 90.999s-75.334 32 -134.001 32h-258
v-252z" />
    <glyph glyph-name="afii10020" unicode="&#x413;" horiz-adv-x="1200" 
d="M127 0v1434h1032v-349h-635v-1085h-397z" />
    <glyph glyph-name="afii10021" unicode="&#x414;" horiz-adv-x="1576" 
d="M20 -287v635h127c51.333 139.333 88.5 285 111.5 437s34.5 356 34.5 612v37h1091v-1086h162l-45 -635h-336v287h-762l-26 -287h-357zM563 348h424v737h-311v-14c0 -148 -9.66699 -278 -29 -390s-47.333 -223 -84 -333z" />
    <glyph glyph-name="afii10022" unicode="&#x415;" horiz-adv-x="1366" 
d="M127 0v1434h1153v-338h-760v-217h688v-314h-688v-227h770v-338h-1163z" />
    <glyph glyph-name="afii10024" unicode="&#x416;" horiz-adv-x="2244" 
d="M-12 0l528 829l-510 605h465l453 -582v582h397v-582l453 582h464l-509 -605l528 -829h-471l-328 541l-137 -160v-381h-397v381l-138 160l-327 -541h-471z" />
    <glyph glyph-name="afii10025" unicode="&#x417;" horiz-adv-x="1310" 
d="M23 213l206.004 264.002c113.333 -113.333 248 -170 404 -170c71.333 0 125.666 13 162.999 39s56 60.333 56 103c0 84 -76.333 126 -229 126h-150v295h145c68.667 0 119.667 11.833 153 35.5s50 55.5 50 95.5c0 37.333 -16.333 67.5 -49 90.5
s-76.334 34.5 -131.001 34.5c-62 0 -127.833 -13.333 -197.5 -40s-126.834 -60.334 -171.501 -101.001l-196 234c164.667 162 364.667 243 600 243c158 0 286.833 -36.333 386.5 -109s149.5 -165.334 149.5 -278.001c0 -150 -71.667 -258.333 -215 -325
c77.333 -26 138.666 -66.5 183.999 -121.5s68 -125.167 68 -210.5c0 -130 -51.5 -236.667 -154.5 -320s-241.167 -125 -414.5 -125c-104.667 0 -198.667 10.833 -282 32.5s-151.833 48.667 -205.5 81s-110.167 74.5 -169.5 126.5z" />
    <glyph glyph-name="afii10026" unicode="&#x418;" horiz-adv-x="1572" 
d="M127 0v1434h393v-807l555 807h371v-1434h-393v807l-555 -807h-371z" />
    <glyph glyph-name="afii10027" unicode="&#x419;" horiz-adv-x="1572" 
d="M127 0v1434h393v-807l555 807h371v-1434h-393v807l-555 -807h-371zM438 1839l216.995 39c30 -82 78 -123 144 -123c36.667 0 66.334 10.5 89.001 31.5s41.334 51.5 56.001 91.5l217 -39c-15.333 -99.333 -54.666 -176.333 -117.999 -231s-144.666 -82 -243.999 -82
c-98.667 0 -179.667 27.333 -243 82s-102.666 131.667 -117.999 231z" />
    <glyph glyph-name="afii10028" unicode="&#x41a;" horiz-adv-x="1495" 
d="M127 0v1434h397v-582l494 582h471l-543 -617l561 -817h-477l-360 532l-146 -161v-371h-397z" />
    <glyph glyph-name="afii10029" unicode="&#x41b;" horiz-adv-x="1538" 
d="M-29 12l27.002 305c24 -5.33301 54.667 -8 92 -8c18.667 0 34.667 1.83301 48 5.5s28.166 12.5 44.499 26.5s30.166 33.667 41.499 59s22.666 60.833 33.999 106.5s20.5 100.667 27.5 165s12.667 144 17 239s6.5 203.167 6.5 324.5v199h1102v-1434h-397v1085h-334v-55
c0 -123.333 -3.83301 -234.5 -11.5 -333.5s-18.5 -184.667 -32.5 -257s-31.833 -135.5 -53.5 -189.5s-45.167 -98 -70.5 -132s-54.666 -61.5 -87.999 -82.5s-67 -35.5 -101 -43.5s-72 -12 -114 -12c-46 0 -91.833 3.66699 -137.5 11s-79.167 14.333 -100.5 21z" />
    <glyph glyph-name="afii10030" unicode="&#x41c;" horiz-adv-x="1777" 
d="M127 0v1434h420l342 -555l342 555h420v-1434h-396v823l-366 -561h-8l-365 557v-819h-389z" />
    <glyph glyph-name="afii10031" unicode="&#x41d;" horiz-adv-x="1558" 
d="M127 0v1434h397v-537h510v537h398v-1434h-398v545h-510v-545h-397z" />
    <glyph glyph-name="afii10032" unicode="&#x41e;" horiz-adv-x="1701" 
d="M78 717c0 101.333 19.8311 197.833 59.498 289.5s93.5 170.834 161.5 237.501s150 119.667 246 159s198.333 59 307 59s210.834 -19.5 306.501 -58.5s177.334 -91.667 245.001 -158s121 -145.333 160 -237s58.5 -188.834 58.5 -291.501
c0 -101.333 -19.833 -198 -59.5 -290s-93.5 -171.333 -161.5 -238s-150 -119.667 -246 -159s-198.333 -59 -307 -59c-144.667 0 -276 33.167 -394 99.5s-210.167 156.333 -276.5 270s-99.5 239.167 -99.5 376.5zM484.998 717c0 -106 34.666 -197 103.999 -273
s157 -114 263 -114c107.333 0 195 37.5 263 112.5s102 166.5 102 274.5c0 106 -34.667 197 -104 273s-157.666 114 -264.999 114c-106 0 -193 -37.5 -261 -112.5s-102 -166.5 -102 -274.5z" />
    <glyph glyph-name="afii10033" unicode="&#x41f;" horiz-adv-x="1538" 
d="M127 0v1434h1284v-1434h-397v1085h-490v-1085h-397z" />
    <glyph glyph-name="afii10034" unicode="&#x420;" horiz-adv-x="1378" 
d="M127 0l0.000976562 1434h614c182.667 0 327.667 -44.833 435 -134.5s161 -214.167 161 -373.5c0 -110 -26.833 -204.333 -80.5 -283s-126.334 -137.167 -218.001 -175.5s-197.5 -57.5 -317.5 -57.5h-197v-410h-397zM524.001 721l189 -0.000976562
c70.667 0 126.167 17 166.5 51s60.5 80.333 60.5 139c0 60.667 -20.167 107.334 -60.5 140.001s-96.5 49 -168.5 49h-187v-379z" />
    <glyph glyph-name="afii10035" unicode="&#x421;" horiz-adv-x="1495" 
d="M78 717c0 103.333 19.166 200.833 57.499 292.5s90.666 170.667 156.999 237s146.5 118.833 240.5 157.5s194.333 58 301 58c255.333 0 456 -101 602 -303l-291 -225c-88.667 110.667 -194 166 -316 166c-99.333 0 -181.166 -36.833 -245.499 -110.5
s-96.5 -164.5 -96.5 -272.5c0 -108.667 32.167 -199.667 96.5 -273s146.166 -110 245.499 -110c70 0 129.5 14.5 178.5 43.5s97.5 72.5 145.5 130.5l299 -213c-48.667 -66.667 -100.167 -122.667 -154.5 -168s-122.666 -82.666 -204.999 -111.999s-174.166 -44 -275.499 -44
c-135.333 0 -259.333 31.833 -372 95.5s-202 152.667 -268 267s-99 242.166 -99 383.499z" />
    <glyph glyph-name="afii10036" unicode="&#x422;" horiz-adv-x="1351" 
d="M47 1085v349h1258v-349h-431v-1085h-397v1085h-430z" />
    <glyph glyph-name="afii10037" unicode="&#x423;" horiz-adv-x="1507" 
d="M0 1434l442 -0.000976562l326 -674l307 674h432l-559 -1094c-66 -129.333 -136 -221.666 -210 -276.999s-165.667 -83 -275 -83c-121.333 0 -236 32 -344 96l155 286c48.667 -32.667 102.667 -49 162 -49c47.333 0 89 20.667 125 62z" />
    <glyph glyph-name="afii10038" unicode="&#x424;" horiz-adv-x="1959" 
d="M53 741c0 91.333 16.498 175.333 49.498 252s80 142.834 141 198.501s137.333 99 229 130s194.167 46.5 307.5 46.5v127h400v-127c113.333 0 215.833 -15.5 307.5 -46.5s168 -74.333 229 -130s108 -121.834 141 -198.501s49.5 -160.667 49.5 -252
c0 -92.667 -16.333 -178.167 -49 -256.5s-79.167 -146.166 -139.5 -203.499s-136.666 -102.166 -228.999 -134.499s-195.5 -48.5 -309.5 -48.5v-159h-400v159c-114 0 -217.167 16.167 -309.5 48.5s-168.666 77.166 -228.999 134.499s-106.833 125.166 -139.5 203.499
s-49 163.833 -49 256.5zM460.998 735c0 -90 29.167 -159.833 87.5 -209.5s135.5 -74.5 231.5 -74.5v565c-96 0 -173.167 -25 -231.5 -75s-87.5 -118.667 -87.5 -206zM1180 451c96 0 173.167 24.833 231.5 74.5s87.5 119.5 87.5 209.5c0 87.333 -29.167 156 -87.5 206
s-135.5 75 -231.5 75v-565z" />
    <glyph glyph-name="afii10039" unicode="&#x425;" horiz-adv-x="1499" 
d="M23 0l491 729l-471 705h457l254 -404l256 404h446l-471 -701l492 -733h-457l-275 432l-276 -432h-446z" />
    <glyph glyph-name="afii10040" unicode="&#x426;" horiz-adv-x="1581" 
d="M127 0v1434h397v-1086h490v1086h397v-1086h162l-45 -635h-336v287h-1065z" />
    <glyph glyph-name="afii10041" unicode="&#x427;" horiz-adv-x="1456" 
d="M86 889l0.00195312 545h397v-433c0 -78 15.333 -135 46 -171s81 -54 151 -54c104 0 188 26 252 78v580h397v-1434h-397v502c-46.667 -27.333 -103.834 -49.5 -171.501 -66.5s-132.834 -25.5 -195.501 -25.5c-150.667 0 -268.167 42.167 -352.5 126.5
s-126.5 201.833 -126.5 352.5z" />
    <glyph glyph-name="afii10042" unicode="&#x428;" horiz-adv-x="2260" 
d="M127 0v1434h397v-1086h408v1086h397v-1086h408v1086h397v-1434h-2007z" />
    <glyph glyph-name="afii10043" unicode="&#x429;" horiz-adv-x="2304" 
d="M127 0v1434h397v-1086h408v1086h397v-1086h408v1086h397v-1086h162l-45 -635h-336v287h-1788z" />
    <glyph glyph-name="afii10044" unicode="&#x42a;" horiz-adv-x="1617" 
d="M41 1085l0.000976562 349h723v-451h217c86.667 0 166.167 -10.333 238.5 -31s135.166 -50.834 188.499 -90.501s94.833 -90.667 124.5 -153s44.5 -133.166 44.5 -212.499c0 -153.333 -52 -274.333 -156 -363s-244 -133 -420 -133h-634v1085h-326zM764.001 334h207
c66 0 117.333 14.667 154 44s55 72 55 128c0 50.667 -18.5 91 -55.5 121s-87.5 45 -151.5 45h-209v-338z" />
    <glyph glyph-name="afii10045" unicode="&#x42b;" horiz-adv-x="2029" 
d="M127 0l0.000976562 1434h397v-451h217c86.667 0 166.167 -10.333 238.5 -31s135.166 -50.834 188.499 -90.501s94.833 -90.667 124.5 -153s44.5 -133.166 44.5 -212.499c0 -153.333 -51.833 -274.333 -155.5 -363s-243.5 -133 -419.5 -133h-635zM524.001 334h207
c66 0 117.333 14.667 154 44s55 72 55 128c0 50.667 -18.5 91 -55.5 121s-87.5 45 -151.5 45h-209v-338zM1505 0v1434h398v-1434h-398z" />
    <glyph glyph-name="afii10046" unicode="&#x42c;" horiz-adv-x="1378" 
d="M127 0l0.000976562 1434h397v-451h217c86.667 0 166.167 -10.333 238.5 -31s135.166 -50.834 188.499 -90.501s94.833 -90.667 124.5 -153s44.5 -133.166 44.5 -212.499c0 -153.333 -51.833 -274.333 -155.5 -363s-243.5 -133 -419.5 -133h-635zM524.001 334h207
c66 0 117.333 14.667 154 44s55 72 55 128c0 50.667 -18.5 91 -55.5 121s-87.5 45 -151.5 45h-209v-338z" />
    <glyph glyph-name="afii10047" unicode="&#x42d;" horiz-adv-x="1495" 
d="M57 274l289 204.998c92 -103.333 198 -155 318 -155c80.667 0 150.167 23.833 208.5 71.5s99.166 110.5 122.499 188.5h-469v280h465c-25.333 73.333 -66.833 132.333 -124.5 177s-125.167 67 -202.5 67c-123.333 0 -227.333 -47.667 -312 -143l-268 229
c146.667 178.667 338.334 268 575.001 268c106.667 0 207 -19.333 301 -58s174.167 -91.167 240.5 -157.5s118.666 -145.333 156.999 -237s57.5 -189.167 57.5 -292.5c0 -141.333 -33 -269.166 -99 -383.499s-155.333 -203.333 -268 -267s-236.667 -95.5 -372 -95.5
c-143.333 0 -264.166 26.333 -362.499 79s-183.833 127.334 -256.5 224.001z" />
    <glyph glyph-name="afii10048" unicode="&#x42e;" horiz-adv-x="2211" 
d="M127 0v1434h397v-537h168c38.667 166 122.5 301.667 251.5 407s282.833 158 461.5 158c104.667 0 202.5 -19.5 293.5 -58.5s168 -91.833 231 -158.5s112.5 -145.667 148.5 -237s54 -188.333 54 -291c0 -136 -30.667 -260.667 -92 -374
s-148.166 -203.666 -260.499 -270.999s-238.5 -101 -378.5 -101c-180.667 0 -335.334 53.5 -464.001 160.5s-211 244.833 -247 413.5h-166v-545h-397zM1079 716.999c0 -109.333 30.333 -201.5 91 -276.5s139 -112.5 235 -112.5s174 37 234 111s90 166.667 90 278
c0 109.333 -30.667 201.5 -92 276.5s-140 112.5 -236 112.5c-95.333 0 -172.833 -37 -232.5 -111s-89.5 -166.667 -89.5 -278z" />
    <glyph glyph-name="afii10049" unicode="&#x42f;" horiz-adv-x="1507" 
d="M61 0l342.001 500.001c-92.667 39.333 -164.834 96.166 -216.501 170.499s-77.5 165.5 -77.5 273.5c0 81.333 15.5 153.833 46.5 217.5s73.667 115 128 154s116.833 68.5 187.5 88.5s147.667 30 231 30h678v-1434h-397v434h-174l-289 -434h-459zM508.001 915.001
c0 -52.667 18.832 -95.167 56.499 -127.5s89.834 -48.5 156.501 -48.5h262v357h-260c-67.333 0 -120 -15.667 -158 -47s-57 -76 -57 -134z" />
    <glyph glyph-name="afii10065" unicode="&#x430;" horiz-adv-x="1226" 
d="M49 322c0 112 39 197.999 117 257.999s183.667 90 317 90c99.333 0 188.333 -14.333 267 -43v18c0 120 -74 180 -222 180c-101.333 0 -203 -20.333 -305 -61l-80 274c140.667 57.333 290.334 86 449.001 86c191.333 0 332 -45 422 -135
c79.333 -77.333 119 -194.666 119 -351.999v-637h-385v115c-84.667 -93.333 -193.334 -140 -326.001 -140c-109.333 0 -198.833 30.5 -268.5 91.5s-104.5 146.167 -104.5 255.5zM424 339.999c0 -37.333 12.667 -66.834 38 -88.501s58.333 -32.5 99 -32.5
c57.333 0 103.833 16.667 139.5 50s53.5 77.333 53.5 132v52c-45.333 18.667 -96 28 -152 28s-99.667 -12.667 -131 -38s-47 -59.666 -47 -102.999z" />
    <glyph glyph-name="afii10066" unicode="&#x431;" horiz-adv-x="1343" 
d="M98 659c0 50.667 1.50098 97.4971 4.50098 140.497s9 89 18 138s20.833 93.5 35.5 133.5s34.667 79.667 60 119s55 73.333 89 102s75.333 53.834 124 75.501s103 37.5 163 47.5l565 92l47 -301l-581 -106c-46.667 -8.66699 -87.167 -22.667 -121.5 -42
s-59.833 -40.666 -76.5 -63.999s-28.834 -44.5 -36.501 -63.5s-12.167 -36.833 -13.5 -53.5c8 13.333 21.5 28.333 40.5 45s43.833 34.334 74.5 53.001s69.5 34.167 116.5 46.5s96.833 18.5 149.5 18.5c70 0 137 -12 201 -36s120.167 -57.5 168.5 -100.5
s86.833 -96.333 115.5 -160s43 -132.5 43 -206.5c0 -102 -25.333 -196 -76 -282s-121.667 -154.5 -213 -205.5s-193 -76.5 -305 -76.5c-196.667 0 -344.5 58 -443.5 174s-148.5 286.667 -148.5 512zM479.001 531.997c0 -63.333 20.5 -117.333 61.5 -162
s92.167 -67 153.5 -67c63.333 0 114.333 21.833 153 65.5s58 98.167 58 163.5c0 63.333 -20.5 117.5 -61.5 162.5s-92.167 67.5 -153.5 67.5c-63.333 0 -114.333 -22 -153 -66s-58 -98.667 -58 -164z" />
    <glyph glyph-name="afii10067" unicode="&#x432;" horiz-adv-x="1247" 
d="M104 0v1108h658c135.333 0 236.333 -33.333 303 -100c48 -46 72 -106.333 72 -181c0 -114.667 -57.333 -197 -172 -247c70.667 -23.333 123.5 -56.5 158.5 -99.5s52.5 -101.5 52.5 -175.5c0 -95.333 -37 -170 -111 -224s-177 -81 -309 -81h-652zM483 252h159.999
c45.333 0 80.5 9.33301 105.5 28s37.5 44 37.5 76c0 29.333 -12.667 53.833 -38 73.5s-61.666 29.5 -108.999 29.5h-156v-207zM482.999 668h131c44 0 78.333 8.83301 103 26.5s37 41.5 37 71.5c0 28 -11.667 50.667 -35 68s-56 26 -98 26h-138v-192z" />
    <glyph glyph-name="afii10068" unicode="&#x433;" horiz-adv-x="960" 
d="M104 0v1108h836v-313h-446v-795h-390z" />
    <glyph glyph-name="afii10069" unicode="&#x434;" horiz-adv-x="1337" 
d="M20 -225v537.998h103c34 98.667 58.833 201.834 74.5 309.501s23.5 251.834 23.5 432.501v53h987v-795h129l-37 -538h-331v225h-580l-20 -225h-349zM520 312.998h297v486h-225v-19c-3.33301 -163.333 -27.333 -319 -72 -467z" />
    <glyph glyph-name="afii10070" unicode="&#x435;" horiz-adv-x="1239" 
d="M59 553c0 80 13.8291 155.666 41.4961 226.999s65.834 132.833 114.501 184.5s107.834 92.667 177.501 123s144.834 45.5 225.501 45.5c92.667 0 175.334 -16.167 248.001 -48.5s131.334 -76.666 176.001 -132.999s78.5 -120.5 101.5 -192.5s34.5 -149.667 34.5 -233
c0 -35.333 -0.666992 -62 -2 -80h-742c15.333 -59.333 43.833 -104.5 85.5 -135.5s93.167 -46.5 154.5 -46.5c86.667 0 168.667 37.667 246 113l215 -178c-118 -150.667 -278.667 -226 -482 -226c-174.667 0 -317.334 53.333 -428.001 160s-166 246.667 -166 420z
M427.996 644.999l385 -0.000976562c-7.33301 62 -28 111 -62 147s-77.333 54 -130 54c-50 0 -92.167 -18.167 -126.5 -54.5s-56.5 -85.166 -66.5 -146.499z" />
    <glyph glyph-name="afii10072" unicode="&#x436;" horiz-adv-x="1871" 
d="M-10 0l389 653l-379 455h440l301 -412v412h389v-412l302 412h440l-381 -455l391 -653h-428l-225 379l-99 -119v-260h-389v260l-100 119l-223 -379h-428z" />
    <glyph glyph-name="afii10073" unicode="&#x437;" horiz-adv-x="1112" 
d="M10 125l153.996 242.002c42 -32.667 96.333 -59.334 163 -80.001s123 -31 169 -31c104.667 0 157 29.333 157 88c0 61.333 -51 92 -153 92h-140v244h138c46.667 0 79.834 9.33301 99.501 28s29.5 40.667 29.5 66c0 20 -11.667 37.667 -35 53s-56 23 -98 23
c-49.333 0 -102.666 -10.833 -159.999 -32.5s-103.666 -47.834 -138.999 -78.501l-156 213c129.333 120.667 297.333 181 504 181c148 0 262.833 -28 344.5 -84s122.5 -128.667 122.5 -218c0 -116.667 -58.667 -200.334 -176 -251.001
c137.333 -47.333 206 -133.333 206 -258c0 -105.333 -44.667 -190.166 -134 -254.499s-224.666 -96.5 -405.999 -96.5c-110.667 0 -201 11.167 -271 33.5s-143 62.5 -219 120.5z" />
    <glyph glyph-name="afii10074" unicode="&#x438;" horiz-adv-x="1312" 
d="M104 0v1108h377v-555l369 555h358v-1108h-377v555l-368 -555h-359z" />
    <glyph glyph-name="afii10075" unicode="&#x439;" horiz-adv-x="1312" 
d="M104 0v1108h377v-555l369 555h358v-1108h-377v555l-368 -555h-359zM328 1503l202.001 37c27.333 -79.333 72.666 -119 135.999 -119c62.667 0 107.667 39.667 135 119l203 -37c-14.667 -97.333 -51.5 -172.5 -110.5 -225.5s-134.833 -79.5 -227.5 -79.5
s-168.5 26.5 -227.5 79.5s-95.833 128.167 -110.5 225.5z" />
    <glyph glyph-name="afii10076" unicode="&#x43a;" horiz-adv-x="1234" 
d="M104 0v1108h390v-412l301 412h440l-379 -455l389 -653h-428l-211 354l-112 -135v-219h-390z" />
    <glyph glyph-name="afii10077" unicode="&#x43b;" horiz-adv-x="1306" 
d="M20 2l17 301.003c28.667 -4 49.667 -6 63 -6c12 0 22.167 1 30.5 3s18 7.33301 29 16s20.167 21 27.5 37s15 38.667 23 68s14.5 64.666 19.5 105.999s9 93.166 12 155.499s4.5 133.166 4.5 212.499v213h956v-1108h-389v799h-205v-29c0 -130.667 -7 -243.5 -21 -338.5
s-32.667 -170.833 -56 -227.5s-53.5 -101.5 -90.5 -134.5s-74.667 -55.167 -113 -66.5s-83.166 -17 -134.499 -17c-52.667 0 -110.334 5.33301 -173.001 16z" />
    <glyph glyph-name="afii10078" unicode="&#x43c;" horiz-adv-x="1513" 
d="M104 0v1108h396l256 -383l258 383h395v-1108h-389v547l-270 -377l-263 369v-539h-383z" />
    <glyph glyph-name="afii10079" unicode="&#x43d;" horiz-adv-x="1306" 
d="M104 0v1108h390v-393h319v393h389v-1108h-389v401h-319v-401h-390z" />
    <glyph glyph-name="afii10080" unicode="&#x43e;" horiz-adv-x="1343" 
d="M59 553c0 78 15.498 152.5 46.498 223.5s73.333 132.667 127 185s118.834 94 195.501 125s158.667 46.5 246 46.5c115.333 0 219.833 -26 313.5 -78s166.5 -122.333 218.5 -211s78 -185.667 78 -291c0 -78 -15.5 -152.5 -46.5 -223.5s-73.167 -132.667 -126.5 -185
s-118.333 -94 -195 -125s-158.667 -46.5 -246 -46.5c-86.667 0 -168.167 15.333 -244.5 46s-141.166 72 -194.499 124s-95.333 113.667 -126 185s-46 146.333 -46 225zM437.998 553c0 -68.667 22.499 -127.5 67.499 -176.5s101.167 -73.5 168.5 -73.5
c68.667 0 124.334 24 167.001 72s64 107.333 64 178c0 68.667 -22.333 127.5 -67 176.5s-100.667 73.5 -168 73.5c-68.667 0 -124.5 -24.167 -167.5 -72.5s-64.5 -107.5 -64.5 -177.5z" />
    <glyph glyph-name="afii10081" unicode="&#x43f;" horiz-adv-x="1290" 
d="M104 0v1108h1082v-1108h-389v795h-303v-795h-390z" />
    <glyph glyph-name="afii10082" unicode="&#x440;" horiz-adv-x="1384" 
d="M104 -328l0.000976562 1436h390v-147c44.667 54 92.667 96.167 144 126.5s115 45.5 191 45.5c66 0 128.667 -13.5 188 -40.5s111.666 -64.833 156.999 -113.5s81.166 -109.667 107.499 -183s39.5 -153.666 39.5 -240.999s-13.167 -167.833 -39.5 -241.5
s-62 -135 -107 -184s-97.167 -87 -156.5 -114s-121.666 -40.5 -186.999 -40.5c-76.667 0 -141.5 14.333 -194.5 43s-100.5 67.667 -142.5 117v-463h-390zM485.001 552.999c0 -72.667 21.833 -132.833 65.5 -180.5s97.167 -71.5 160.5 -71.5c64.667 0 118.667 23.667 162 71
s65 109 65 185c0 72 -21.833 131.667 -65.5 179s-97.5 71 -161.5 71c-63.333 0 -116.833 -23.833 -160.5 -71.5s-65.5 -108.5 -65.5 -182.5z" />
    <glyph glyph-name="afii10083" unicode="&#x441;" horiz-adv-x="1165" 
d="M59 553c0 104 24.8359 199.831 74.5029 287.498s120.167 157.834 211.5 210.501s194 79 308 79c212 0 369.667 -82.333 473 -247l-260 -189c-52 72.667 -118.667 109 -200 109c-68.667 0 -123.834 -23.833 -165.501 -71.5s-62.5 -107.167 -62.5 -178.5
c0 -72 20.667 -132 62 -180s94.333 -72 159 -72c43.333 0 80.666 9.5 111.999 28.5s63.666 48.5 96.999 88.5l265 -191c-113.333 -169.333 -278 -254 -494 -254c-108.667 0 -207.667 26.167 -297 78.5s-158.833 122.833 -208.5 211.5s-74.5 185.334 -74.5 290.001z" />
    <glyph glyph-name="afii10084" unicode="&#x442;" horiz-adv-x="1077" 
d="M20 795v313h1037v-313h-324v-795h-389v795h-324z" />
    <glyph glyph-name="afii10085" unicode="&#x443;" horiz-adv-x="1282" 
d="M23 1108h407.001l221 -668l209 668h400l-406 -1081c-48.667 -131.333 -104 -224.333 -166 -279s-147.333 -82 -256 -82c-122.667 0 -241.334 32 -356.001 96l121 273c66 -40 122.667 -60 170 -60c38.667 0 68.667 15 90 45z" />
    <glyph glyph-name="afii10086" unicode="&#x444;" horiz-adv-x="1839" 
d="M61 559c0 174.667 41.668 312.834 125.001 414.501s192 152.5 326 152.5c75.333 0 146.333 -26.333 213 -79v387h389v-387c64 52.667 135 79 213 79c134 0 242.667 -51.167 326 -153.5s125 -241.5 125 -417.5c0 -176.667 -41.5 -316.334 -124.5 -419.001
s-191.167 -154 -324.5 -154c-76.667 0 -148.334 23 -215.001 69v-379h-389v379c-70 -46 -141.667 -69 -215 -69c-134 0 -242.333 51.333 -325 154s-124 243.667 -124 423zM444.001 553c0 -78 15.834 -140.5 47.501 -187.5s78.167 -70.5 139.5 -70.5
c35.333 0 66.666 6.66699 93.999 20v476c-30.667 14.667 -62 22 -94 22c-61.333 0 -107.833 -23.667 -139.5 -71s-47.5 -110.333 -47.5 -189zM1114 315c27.333 -13.333 58.667 -20 94 -20c61.333 0 107.833 23.667 139.5 71s47.5 111 47.5 191
c0 76 -15.833 137.667 -47.5 185s-78.167 71 -139.5 71c-32 0 -63.333 -7.33301 -94 -22v-476z" />
    <glyph glyph-name="afii10087" unicode="&#x445;" horiz-adv-x="1206" 
d="M16 0l373 559l-366 549h419l164 -272l164 272h412l-365 -547l373 -561h-418l-172 285l-174 -285h-410z" />
    <glyph glyph-name="afii10088" unicode="&#x446;" horiz-adv-x="1314" 
d="M104 0v1108h390v-795h303v795h389v-795h129l-37 -538h-332v225h-842z" />
    <glyph glyph-name="afii10089" unicode="&#x447;" horiz-adv-x="1255" 
d="M94 678l0.000976562 430h391v-313c0 -57.333 9 -100 27 -128s48 -42 90 -42c69.333 0 122.666 14.333 159.999 43v440h389v-1108h-389v356c-32 -14.667 -75.167 -26.5 -129.5 -35.5s-102.833 -13.5 -145.5 -13.5c-116 0 -210.5 32.833 -283.5 98.5
s-109.5 156.5 -109.5 272.5z" />
    <glyph glyph-name="afii10090" unicode="&#x448;" horiz-adv-x="1921" 
d="M104 0v1108h390v-795h272v795h389v-795h272v795h390v-1108h-1713z" />
    <glyph glyph-name="afii10091" unicode="&#x449;" horiz-adv-x="1945" 
d="M104 0v1108h390v-795h272v795h389v-795h272v795h390v-795h129l-37 -538h-332v225h-1473z" />
    <glyph glyph-name="afii10092" unicode="&#x44a;" horiz-adv-x="1353" 
d="M10 795l-0.000976562 313h658v-348h188c136 0 246.167 -32.5 330.5 -97.5s126.5 -158.167 126.5 -279.5c0 -119.333 -39.667 -213 -119 -281s-186.666 -102 -321.999 -102h-593v795h-269zM667.999 274h120.002c47.333 0 84.166 10.333 110.499 31s39.5 50.667 39.5 90
c0 36 -13.333 64.167 -40 84.5s-63.334 30.5 -110.001 30.5h-120v-236z" />
    <glyph glyph-name="afii10093" unicode="&#x44b;" horiz-adv-x="1757" 
d="M104 0l-0.000976562 1108h390v-348h188c136 0 246.167 -32.5 330.5 -97.5s126.5 -158.167 126.5 -279.5c0 -119.333 -39.667 -213 -119 -281s-186.666 -102 -321.999 -102h-594zM493.999 274h120.002c47.333 0 84.166 10.333 110.499 31s39.5 50.667 39.5 90
c0 36 -13.333 64.167 -40 84.5s-63.334 30.5 -110.001 30.5h-120v-236zM1264 0v1108h389v-1108h-389z" />
    <glyph glyph-name="afii10094" unicode="&#x44c;" horiz-adv-x="1179" 
d="M104 0l-0.000976562 1108h390v-348h188c136 0 246.167 -32.5 330.5 -97.5s126.5 -158.167 126.5 -279.5c0 -119.333 -39.667 -213 -119 -281s-186.666 -102 -321.999 -102h-594zM493.999 274h120.002c47.333 0 84.166 10.333 110.499 31s39.5 50.667 39.5 90
c0 36 -13.333 64.167 -40 84.5s-63.334 30.5 -110.001 30.5h-120v-236z" />
    <glyph glyph-name="afii10095" unicode="&#x44d;" horiz-adv-x="1142" 
d="M20 213l242.001 178.001c33.333 -37.333 67 -65 101 -83s74 -27 120 -27c51.333 0 96.666 14.333 135.999 43s68 67.334 86 116.001h-299v224h299c-18 48 -46.5 86.5 -85.5 115.5s-83.167 43.5 -132.5 43.5c-93.333 0 -168.333 -36.667 -225 -110l-231 190
c104 151.333 256.667 227 458 227c114 0 216.667 -26.333 308 -79s161.833 -122.834 211.5 -210.501s74.5 -183.5 74.5 -287.5c0 -104.667 -24.833 -201.334 -74.5 -290.001s-119 -159.167 -208 -211.5s-187.833 -78.5 -296.5 -78.5c-208.667 0 -370 80 -484 240z" />
    <glyph glyph-name="afii10096" unicode="&#x44e;" horiz-adv-x="1851" 
d="M104 0l0.00390625 1108h390v-401h139c35.333 126 103.333 228.5 204 307.5s223 118.5 367 118.5c86.667 0 167 -15.333 241 -46s136.167 -72.167 186.5 -124.5s89.666 -113.833 117.999 -184.5s42.5 -145.667 42.5 -225c0 -78.667 -14.333 -153.167 -43 -223.5
s-68.334 -131.833 -119.001 -184.5s-113.334 -94.5 -188.001 -125.5s-155.334 -46.5 -242.001 -46.5c-146 0 -269.5 40.5 -370.5 121.5s-167.833 186.167 -200.5 315.5h-135v-410h-390zM991.004 553c0 -70.667 19 -130 57 -178s90 -72 156 -72c67.333 0 119 23.5 155 70.5
s54 106.833 54 179.5c0 70.667 -19 130 -57 178s-90 72 -156 72c-67.333 0 -119 -23.5 -155 -70.5s-54 -106.833 -54 -179.5z" />
    <glyph glyph-name="afii10097" unicode="&#x44f;" horiz-adv-x="1267" 
d="M27 0l260 385c-136.667 64.667 -205 176.667 -205 336c0 112.667 34 200.667 102 264c78 82 199 123 363 123h616v-1108h-391v319h-88l-213 -319h-444zM475 700c0 -35.333 12.333 -62.5 37 -81.5s60 -28.5 106 -28.5h154v225h-154c-45.333 0 -80.5 -9.83301 -105.5 -29.5
s-37.5 -48.167 -37.5 -85.5z" />
    <glyph glyph-name="afii10071" unicode="&#x451;" horiz-adv-x="1239" 
d="M59 553c0 80 13.8291 155.666 41.4961 226.999s65.834 132.833 114.501 184.5s107.834 92.667 177.501 123s144.834 45.5 225.501 45.5c92.667 0 175.334 -16.167 248.001 -48.5s131.334 -76.666 176.001 -132.999s78.5 -120.5 101.5 -192.5s34.5 -149.667 34.5 -233
c0 -35.333 -0.666992 -62 -2 -80h-742c15.333 -59.333 43.833 -104.5 85.5 -135.5s93.167 -46.5 154.5 -46.5c86.667 0 168.667 37.667 246 113l215 -178c-118 -150.667 -278.667 -226 -482 -226c-174.667 0 -317.334 53.333 -428.001 160s-166 246.667 -166 420z
M224.996 1202v293h338v-293h-338zM427.996 644.999l385 -0.000976562c-7.33301 62 -28 111 -62 147s-77.333 54 -130 54c-50 0 -92.167 -18.167 -126.5 -54.5s-56.5 -85.166 -66.5 -146.499zM673.996 1202v293h338v-293h-338z" />
    <glyph glyph-name="afii10099" unicode="&#x452;" horiz-adv-x="1298" 
d="M-25 1108v262.003h129v125h390v-125h321v-262h-321v-254c92 117.333 202.333 176 331 176c118 0 210.333 -36.167 277 -108.5s100 -171.833 100 -298.5v-244c0 -126.667 -33.5 -226.334 -100.5 -299.001s-159.167 -109 -276.5 -109c-80 0 -153 9.66699 -219 29l21 313
c6.66699 -1.33301 16.667 -2 30 -2c47.333 0 85.166 16.333 113.499 49s42.5 78.667 42.5 138s-14.167 105.166 -42.5 137.499s-66.166 48.5 -113.499 48.5c-48.667 0 -88 -16.333 -118 -49s-45 -78.334 -45 -137.001v-498h-390v1108h-129z" />
    <glyph glyph-name="afii10100" unicode="&#x453;" horiz-adv-x="960" 
d="M104 0v1108h836v-313h-446v-795h-390zM295 1202l213 379l362 -117l-301 -262h-274z" />
    <glyph glyph-name="afii10101" unicode="&#x454;" horiz-adv-x="1142" 
d="M59 553c0 104 24.835 199.832 74.502 287.499s120.167 157.834 211.5 210.501s194 79 308 79c202 0 355 -75.667 459 -227l-231 -190c-56.667 73.333 -132 110 -226 110c-50 0 -94.333 -14.5 -133 -43.5s-67.334 -67.5 -86.001 -115.5h301v-224h-301
c18 -48.667 46.667 -87.334 86 -116.001s85 -43 137 -43c46 0 86.167 9 120.5 27s68.166 45.667 101.499 83l241 -178c-114 -160 -275 -240 -483 -240c-108.667 0 -207.667 26.167 -297 78.5s-158.833 122.833 -208.5 211.5s-74.5 185.334 -74.5 290.001z" />
    <glyph glyph-name="afii10102" unicode="&#x455;" horiz-adv-x="1052" 
d="M20 139l146 236.003c128 -84.667 255 -127 381 -127c65.333 0 98 21 98 63c0 20 -13.333 36.5 -40 49.5s-72.667 28.167 -138 45.5c-49.333 13.333 -91.333 26 -126 38s-70 28 -106 48s-64.833 41.667 -86.5 65s-39.5 52.666 -53.5 87.999s-21 75 -21 119
c0 115.333 41 205.166 123 269.499s189 96.5 321 96.5c81.333 0 162 -11.333 242 -34s151.667 -54.334 215 -95.001l-133 -245c-57.333 31.333 -115.333 56.166 -174 74.499s-110 27.5 -154 27.5c-29.333 0 -51.666 -5 -66.999 -15s-23 -24 -23 -42
c0 -20 13.167 -36.5 39.5 -49.5s73.166 -29.5 140.499 -49.5c49.333 -14 91.333 -27.333 126 -40s70 -29 106 -49s64.833 -41.667 86.5 -65s39.5 -52.166 53.5 -86.499s21 -72.833 21 -115.5c0 -119.333 -40.667 -211 -122 -275s-191.333 -96 -330 -96
c-198 0 -373 54.667 -525 164z" />
    <glyph glyph-name="afii10103" unicode="&#x456;" horiz-adv-x="614" 
d="M104 1208v287h406v-287h-406zM113 0v1108h389v-1108h-389z" />
    <glyph glyph-name="afii10104" unicode="&#x457;" horiz-adv-x="614" 
d="M-86 1202v293h338v-293h-338zM113 0v1108h389v-1108h-389zM362 1202v293h338v-293h-338z" />
    <glyph glyph-name="afii10105" unicode="&#x458;" horiz-adv-x="618" 
d="M-53 -61c10.667 -1.33301 27.666 -2.00098 50.999 -2.00098c39.333 0 68.333 9.83301 87 29.5s28 52.834 28 99.501v1042h389v-1059c0 -136 -33.167 -233.833 -99.5 -293.5s-165.166 -89.5 -296.499 -89.5c-27.333 0 -80.333 5 -159 15v258zM103.999 1208v287h406v-287
h-406z" />
    <glyph glyph-name="afii10106" unicode="&#x459;" horiz-adv-x="1888" 
d="M20 2l17 301.003c28.667 -4 49.667 -6 63 -6c12 0 22.167 1 30.5 3s18 7.33301 29 16s20.167 21 27.5 37s15 38.667 23 68s14.5 64.666 19.5 105.999s9 93.166 12 155.499s4.5 133.166 4.5 212.499v213h956v-348h189c136 0 246 -32.5 330 -97.5s126 -158.167 126 -279.5
c0 -119.333 -39.667 -213 -119 -281s-186.333 -102 -321 -102h-594v799h-205v-29c0 -130.667 -7 -243.5 -21 -338.5s-32.667 -170.833 -56 -227.5s-53.5 -101.5 -90.5 -134.5s-74.667 -55.167 -113 -66.5s-83.166 -17 -134.499 -17c-52.667 0 -110.334 5.33301 -173.001 16z
M1202 274.003h121.002c47.333 0 84.166 10.333 110.499 31s39.5 50.667 39.5 90c0 36 -13.333 64.167 -40 84.5s-63.334 30.5 -110.001 30.5h-121v-236z" />
    <glyph glyph-name="afii10107" unicode="&#x45a;" horiz-adv-x="1888" 
d="M104 0l0.000976562 1108h390v-352h319v352h389v-352h178c91.333 0 171.5 -13.167 240.5 -39.5s124 -68.166 165 -125.499s61.5 -127.333 61.5 -210c0 -120.667 -40.333 -214.334 -121 -281.001s-190.334 -100 -329.001 -100h-584v463h-319v-463h-390zM1202 279h121
c100 0 150 36.667 150 110c0 70 -50 105 -150 105h-121v-215z" />
    <glyph glyph-name="afii10108" unicode="&#x45b;" horiz-adv-x="1298" 
d="M-25 1108l-0.000976562 262.002h129v125h390v-125h321v-262h-321v-254c92 117.333 202.333 176 331 176c118 0 210.333 -36.167 277 -108.5s100 -171.833 100 -298.5v-623h-389v498c0 59.333 -14.167 105.166 -42.5 137.499s-66.166 48.5 -113.499 48.5
c-48.667 0 -88 -16.333 -118 -49s-45 -78.334 -45 -137.001v-498h-390v1108h-129z" />
    <glyph glyph-name="afii10109" unicode="&#x45c;" horiz-adv-x="1234" 
d="M104 0v1108h390v-412l301 412h440l-379 -455l389 -653h-428l-211 354l-112 -135v-219h-390zM432 1202l213 379l363 -117l-301 -262h-275z" />
    <glyph glyph-name="afii10110" unicode="&#x45e;" horiz-adv-x="1282" 
d="M23 1108h407.001l221 -668l209 668h400l-406 -1081c-48.667 -131.333 -104 -224.333 -166 -279s-147.333 -82 -256 -82c-122.667 0 -241.334 32 -356.001 96l121 273c66 -40 122.667 -60 170 -60c38.667 0 68.667 15 90 45zM313.001 1503l203 37
c27.333 -79.333 72.333 -119 135 -119s107.667 39.667 135 119l203 -37c-14.667 -97.333 -51.5 -172.5 -110.5 -225.5s-134.833 -79.5 -227.5 -79.5s-168.5 26.5 -227.5 79.5s-95.833 128.167 -110.5 225.5z" />
    <glyph glyph-name="afii10193" unicode="&#x45f;" horiz-adv-x="1290" 
d="M104 0v1108h390v-795h303v795h389v-1108h-359v-225h-368v225h-355z" />
    <glyph glyph-name="afii10050" unicode="&#x490;" horiz-adv-x="1200" 
d="M127 0v1434h651v286h336l45 -635h-635v-1085h-397z" />
    <glyph glyph-name="afii10098" unicode="&#x491;" horiz-adv-x="960" 
d="M104 0v1108h467v225h332l37 -538h-446v-795h-390z" />
    <glyph glyph-name="uni2000" unicode="&#x2000;" horiz-adv-x="954" 
 />
    <glyph glyph-name="uni2001" unicode="&#x2001;" horiz-adv-x="1909" 
 />
    <glyph glyph-name="uni2002" unicode="&#x2002;" horiz-adv-x="954" 
 />
    <glyph glyph-name="uni2003" unicode="&#x2003;" horiz-adv-x="1909" 
 />
    <glyph glyph-name="uni2004" unicode="&#x2004;" horiz-adv-x="636" 
 />
    <glyph glyph-name="uni2005" unicode="&#x2005;" horiz-adv-x="477" 
 />
    <glyph glyph-name="uni2006" unicode="&#x2006;" horiz-adv-x="318" 
 />
    <glyph glyph-name="uni2007" unicode="&#x2007;" horiz-adv-x="318" 
 />
    <glyph glyph-name="uni2008" unicode="&#x2008;" horiz-adv-x="238" 
 />
    <glyph glyph-name="uni2009" unicode="&#x2009;" horiz-adv-x="381" 
 />
    <glyph glyph-name="uni200A" unicode="&#x200a;" horiz-adv-x="106" 
 />
    <glyph glyph-name="uni2010" unicode="&#x2010;" horiz-adv-x="835" 
d="M82 469v342h672v-342h-672z" />
    <glyph glyph-name="uni2011" unicode="&#x2011;" horiz-adv-x="835" 
d="M82 469v342h672v-342h-672z" />
    <glyph glyph-name="figuredash" unicode="&#x2012;" horiz-adv-x="835" 
d="M82 469v342h672v-342h-672z" />
    <glyph glyph-name="endash" unicode="&#x2013;" horiz-adv-x="1081" 
d="M82 473v334h917v-334h-917z" />
    <glyph glyph-name="emdash" unicode="&#x2014;" horiz-adv-x="1839" 
d="M82 473v334h1675v-334h-1675z" />
    <glyph glyph-name="quoteleft" unicode="&#x2018;" horiz-adv-x="581" 
d="M82 702v326.001c0 144.667 36 249.167 108 313.5s176 98.5 312 102.5l33 -150c-66 -8 -116.667 -27.333 -152 -58s-53 -71.334 -53 -122.001v-12h155v-400h-403z" />
    <glyph glyph-name="quoteright" unicode="&#x2019;" horiz-adv-x="581" 
d="M47 842c65.333 7.33301 115.833 26.5 151.5 57.5s53.5 71.833 53.5 122.5v12h-156v400h404v-326c0 -144.667 -36 -249.167 -108 -313.5s-176 -98.5 -312 -102.5z" />
    <glyph glyph-name="quotesinglbase" unicode="&#x201a;" horiz-adv-x="581" 
d="M41 -193c66.667 8 117.5 27.833 152.5 59.5s52.5 73.5 52.5 125.5v8h-158v399h406v-325c0 -144.667 -36.333 -249.167 -109 -313.5s-177 -98.5 -313 -102.5z" />
    <glyph glyph-name="quotedblleft" unicode="&#x201c;" horiz-adv-x="1120" 
d="M82 702v326c0 142.667 35.667 246.667 107 312s174.333 100 309 104l30 -150c-132 -16 -198 -75.333 -198 -178v-14h151v-400h-399zM625 702v326c0 142.667 35.667 246.667 107 312s174 100 308 104l33 -150c-134 -16 -201 -76.667 -201 -182v-10h152v-400h-399z" />
    <glyph glyph-name="quotedblright" unicode="&#x201d;" horiz-adv-x="1120" 
d="M47 842c66 6.66699 116 25.667 150 57s51 73 51 125v10h-152v400h400v-326c0 -143.333 -35.667 -247.5 -107 -312.5s-174.333 -99.5 -309 -103.5zM592 842c66 6.66699 116 25.667 150 57s51 73 51 125v10h-154v400h399v-326c0 -143.333 -35.333 -247.5 -106 -312.5
s-173 -99.5 -307 -103.5z" />
    <glyph glyph-name="quotedblbase" unicode="&#x201e;" horiz-adv-x="1118" 
d="M41 -193c132.667 16 199 75.667 199 179v14h-152v399h399v-325c0 -143.333 -35.5 -247.5 -106.5 -312.5s-173.833 -99.5 -308.5 -103.5zM586 -193c132 16 198 75.667 198 179v14h-151v399h399v-325c0 -143.333 -35.667 -247.5 -107 -312.5s-174.333 -99.5 -309 -103.5z
" />
    <glyph glyph-name="bullet" unicode="&#x2022;" 
d="M166 723c0 94.667 33.833 175.667 101.5 243s149.167 101 244.5 101s176.833 -33.667 244.5 -101s101.5 -149.666 101.5 -246.999c0 -94.667 -33.833 -175.667 -101.5 -243s-149.167 -101 -244.5 -101s-176.833 33.667 -244.5 101s-101.5 149.666 -101.5 246.999z" />
    <glyph glyph-name="ellipsis" unicode="&#x2026;" horiz-adv-x="1720" 
d="M88 0v393h397v-393h-397zM662 0v393h397v-393h-397zM1235 0v393h397v-393h-397z" />
    <glyph glyph-name="uni202F" unicode="&#x202f;" horiz-adv-x="381" 
 />
    <glyph glyph-name="guilsinglleft" unicode="&#x2039;" horiz-adv-x="731" 
d="M61 500v98l328 438l281 -137l-267 -350l267 -348l-281 -140z" />
    <glyph glyph-name="guilsinglright" unicode="&#x203a;" horiz-adv-x="731" 
d="M61 199l267 350l-267 348l281 139l328 -438v-98l-328 -439z" />
    <glyph glyph-name="uni205F" unicode="&#x205f;" horiz-adv-x="477" 
 />
    <glyph glyph-name="Euro" unicode="&#x20ac;" horiz-adv-x="1396" 
d="M76 457l-0.000976562 213.002h139c-1.33301 9.33301 -2 25 -2 47c0 24.667 0.666992 43 2 55h-139v213h172c18 68 45 130.667 81 188s79.5 107.666 130.5 150.999s111.167 77.166 180.5 101.499s144 36.5 224 36.5c207.333 0 371.333 -77 492 -231l-252 -236
c-66 84.667 -145.333 127 -238 127c-50.667 0 -95 -12.5 -133 -37.5s-68 -60.167 -90 -105.5h320v-207h-365c-1.33301 -10.667 -2 -29 -2 -55c0 -20.667 0.666992 -36.334 2 -47.001h365v-207h-324c48.667 -101.333 127 -152 235 -152c49.333 0 92.833 11.333 130.5 34
s74.834 56.334 111.501 101.001l246 -231c-125.333 -162.667 -292 -244 -500 -244c-162 0 -296.833 44 -404.5 132s-179.5 206 -215.5 354h-166z" />
    <glyph glyph-name="trademark" unicode="&#x2122;" horiz-adv-x="1423" 
d="M33 1280v154h553v-154h-189v-477h-176v477h-188zM684 803v631h186l150 -244l151 244h185v-631h-174v368l-160 -249h-6l-160 249v-368h-172z" />
    <glyph glyph-name="uni25FC" unicode="&#x25fc;" horiz-adv-x="1105" 
d="M0 0v1106h1106v-1106h-1106z" />
    <glyph glyph-name="glyph1" horiz-adv-x="0" 
 />
    <glyph glyph-name="glyph2" horiz-adv-x="682" 
 />
    </font>
</defs>
</svg>
